<svg xmlns="http://www.w3.org/2000/svg" id="Layer_1" viewBox="148.08 262.81 603.86 375.12"><defs><style>.cls-1{fill:#fff;}</style></defs><path class="cls-1" d="M408.56,515.93h-13.98c-.56,0-1.12.43-1.23.97l-6.71,27.94-5.15,23.74-.45,1.94-19.46-53.73c-.22-.43-.78-.87-1.34-.87h-17.56c-.56,0-1.12.43-1.23.97l-8.39,36.79-9.28,36.79c-.11.54.22.97.78.97h13.98c.56,0,1.12-.43,1.23-.97l5.82-24.28,5.03-23.52,1.12-5.5,19.13,53.3c.22.54.78.97,1.34.97h18.23c.56,0,1.12-.43,1.23-.97l8.39-36.79,9.28-36.79c.11-.54-.22-.97-.78-.97Z"/><path class="cls-1" d="M333.31,516.91c.11-.54-.22-.97-.78-.97h-15.21c-.56,0-1.12.43-1.23.97l-8.28,36.79-9.4,36.79c-.11.54.22.97.78.97h15.21c.56,0,1.12-.43,1.23-.97l8.28-36.79,9.4-36.79Z"/><path class="cls-1" d="M657.52,577.76l1.63,3.61s.03-.06.04-.09c.15.14.33.25.44.42.04.06-.09.22-.14.34-.02-.02-.04-.03-.06-.05l3.9,8.61c.22.54.89.86,1.45.86h17.34c.45,0,.78-.43.56-.86l-9.21-19.4c-.08-.03-.16-.07-.25-.11.01-.11.03-.22.04-.33l-4.7-9.91s-.01.02-.02.02c-.54-.08-.54-.55-.65-.9-.02-.05.05-.17.13-.27l-3.64-7.67c-.17-.03-.34-.06-.51-.08.05-.23.1-.45.15-.68l-2.02-4.26,11.26-10.35c-.98-.46-1.19-1.74-2.3-1.75.08-.58.03-.98.16-1.04.32-.16.98-.32,1.03-.23.47.91,1.34,1.19,2.18,1.54.15.06.25.13.32.19l20.46-18.8c.34-.22.11-.65-.22-.65h-10.43c.41.46.69,1.12.87,2,0-.06-.02.31-.05.67-.24-.09-.48-.17-.7-.28-1.03-.48-2.32-.66-2.47-2.17,0-.08,0-.15,0-.22h-7.01c-.56,0-1.23.32-1.68.76l-28.97,29.35,7.27-29.13c.11-.54-.22-.97-.78-.97h-15.21c-.56,0-1.12.43-1.23.97l-2.69,11.81s.07.06.09.1c.04.06-.09.22-.14.34-.02-.01-.03-.03-.05-.04l-2.39,10.49c.15.26.28.54,0,.82-.03.03-.11.04-.2.04l-.8,3.5s.06.03.09.04c-.05.05-.1.11-.14.17l-2.17,9.52-9.28,36.79c-.11.54.22.97.78.97h15.21c.56,0,1.12-.43,1.23-.97l5.15-22.44,9.95-9.17,8.39,18.88ZM691.43,517.1c.19-.08.47.08.71.13-.26.25-.49.56-.8.72-.17.09-.47-.08-.84-.16.35-.28.61-.56.93-.7ZM679.79,522.55c.11-.03.45.24.45.36-.02.51-.53.51-.87.62-.11.04-.32-.22-.47-.33.08-.54.55-.54.9-.65ZM676.01,526.98c.16-.79,1.17-1.01,1.59-.91,1.25.32,2.4,1.13,3.73.26.06-.04.35.11.34.15-.02.21-.06.57-.17.59-1.5.4-2.09,1.76-3.37,2.88-.51-.22-1.47-.4-2.03-.97-.35-.36-.22-1.34-.09-2ZM672.28,519.69c.54-.66,1.11-1.3,1.74-1.87.36-.33.75-.1.97.25.8,1.26-1.02,1.19-1.09,2.09-.05.6-.65.73-1.21.51-.1-.04-.17-.17-.26-.25-.05-.24-.24-.59-.14-.72ZM663.24,573.39c-.4.31-.87.51-1.24.71-.46.13-.83.3-1.2.31-.18,0-.39-.28-.53-.47-.27-.38-.13-.74.18-1.01.65-.58,1.97.79,2.31-.78.17.18.4.32.49.53.09.21.12.61,0,.7ZM664.8,567.73c.48-.13,1.16-.74,1.4-.28.33.65-.12,1.37-.81,1.79-.43.26-.72.04-.99-.3-.18-.49-.34-1.01.4-1.21ZM662.83,557.14c.12.05.32.09.33.16.03.19-.02.4-.04.6-.12-.05-.23-.1-.38-.16.03-.19.05-.39.08-.59ZM669.55,527.45c.62.39,1.58.33,1.76,1.28.07.39-.08.75-.55.83-.77.13-1.37-.18-1.89-.72.24-.49.45-.94.67-1.39ZM661.36,542.88c.4-.11.71.03.89.5.27.7-.11.98-.65,1.12-.39.11-.78,0-.86-.48-.33-.7.08-1,.63-1.15ZM660.45,551.09c-.16-.13-.31-.26-.46-.38.06-.14.11-.26.16-.38.15.14.33.25.44.42.04.06-.09.22-.14.34ZM659.46,546.26c.33-.16.7-.49,1.06-.14.09.08.02.52-.08.57-.33.15-.67.48-1.1.13.03-.19.01-.51.12-.57ZM659,567.43c1.22-.15,2.69-.67,3.6-.18.78.42,1.01,2,1.33,3.11.13.44-.52.48-.78.64-.31.12-.74.35-.78.3-.89-1.23-2.89-1.15-3.38-2.82-.1-.33-.04-1.04,0-1.05ZM656.64,563.22c.45.21,1.2.35,1.29.67.11.38-.25,1.26-.56,1.34-.89.24-.71-.75-1.01-1.2-.22-.33-.22-.67.28-.81ZM655.72,559.06c.12.05.23.1.37.16-.03.19-.05.39-.08.59-.12-.05-.32-.09-.33-.16-.03-.19.02-.4.04-.6ZM622.63,586.03c-.2-.14-.53-.25-.58-.43-.09-.34-.02-.72-.02-1.08.2.14.4.28.7.49-.03.3-.07.66-.1,1.02ZM622.77,576.36c-.34.2-.71.23-.81-.24-.03-.13.32-.33.49-.5.36-.18.72-.22.82.25.03.13-.3.37-.5.49ZM623.28,574.54c-.28-.35-.56-.61-.7-.93-.08-.19.08-.47.13-.71.25.26.56.49.72.8.09.17-.08.47-.16.84ZM624.58,576.62c0-.32-.08-.73,0-.77.65-.28,1.09.34,1.65.47-.14.2-.24.48-.44.58-.49.27-.97.3-1.22-.29ZM627.01,586.06c-.48-.21-.95-.42-1.45-.63.05-.2.03-.51.15-.58.44-.26.99-.51,1.29.14.14.3.02.71.01,1.07ZM628.16,569c-.2-.15-.46-.25-.59-.44-.58-.88-.53-1.66.1-1.98.39-.25.74-.08.95.27.49.83-.25,1.44-.47,2.15ZM629.43,551.04c-.42.25-.72.06-1-.27-.17-.49-.37-1.01.37-1.22.48-.14.91-.62,1.46-.32.32.17-.29,1.5-.82,1.82ZM631.28,574.9c-.28-.35-.56-.61-.7-.93-.08-.19.08-.47.13-.71.25.26.56.49.72.8.09.17-.08.47-.16.84ZM631.66,566.76c-.12-.05-.23-.1-.38-.16.03-.19.05-.39.08-.59.12.05.32.09.33.16.03.19-.02.4-.04.6ZM633.31,544.27c-.12-.05-.23-.1-.38-.16.03-.19.05-.39.08-.59.12.05.32.09.33.16.03.19-.02.4-.04.6ZM634.47,576.14c-.16-.13-.31-.26-.46-.38.06-.14.11-.26.16-.38.15.14.33.25.44.42.04.06-.09.22-.14.34ZM636.37,547.24c-.02.41-.4,1.11-.68,1.14-.45.05-1.29-.28-1.35-.57-.11-.54.59-.7,1.17-.88.25.04.91-.66.86.31ZM646.83,531.97c.4.12.66.37.73.86-.04.17-.09.41-.14.66-.25-.26-.56-.49-.72-.8-.09-.17.08-.47.13-.71ZM645.93,526.78c.03.13-.3.37-.5.49-.34.2-.71.23-.81-.24-.03-.13.32-.33.49-.5.36-.18.72-.22.82.25ZM643.79,519.2c.49-.26.96-.32,1.24.38.19.47.05.78-.31.97-.5.26-1,.32-1.24-.41-.26-.41-.05-.75.31-.94ZM642.28,536.98c.04-.17.09-.41.14-.66.25.26.56.49.72.8.09.17-.08.47-.13.71-.4-.12-.66-.37-.73-.86ZM644.18,557.48c-1.02.37-1-.51-1.28-1-.18-.53-.37-1.01.37-1.28,1.02-.37,1.03.49,1.28,1.02.23.5.37.99-.36,1.26ZM647.89,546.22c-.08.03-.32-.32-.49-.51-.3-.66.11-.94.64-1.09.21-.06.47.07.71.12-.3.49-.22,1.22-.87,1.48Z"/><path class="cls-1" d="M705.43,474.1c-.44,0-.68.25-.92.55h9.77l-43.81-45.5c-.68.1-1.23-.24-1.72-.71.12-.25.23-.49.34-.72l-16.05-16.67c.05.28-.03.54-.45.72-1.25.54-1.11-.63-1.56-1.35-.34-.44-.1-.67.53-.88,0,0,0,0,.02,0l-35.39-36.76c-.44.19-.86.16-1.07-.5-.16-.25-.14-.47-.03-.64l-6.5-6.76c2.36,4.25,4.51,8.59,6.37,13.01,1.03,2.45,1.97,4.98,2.77,7.56,1.88,6,3.04,12.27,3.15,18.47l26.12,27.13c.13-.22.27-.43.44-.61.34-.35,2.08.28,1.95.61-.21.55-.23,1.39-.91,1.54l7.36,7.64c.2-.08.44-.16.74-.22-.02,0,.64-.57.73.16.04.32-.07.8-.38,1.18l14.54,15.1h-48.77c-.09.37-.53.47-.89.63-.68.31-1.28.44-1.51-.49-.01-.05-.02-.1-.02-.15h-60.39c.02.31-.13.55-.52.7-.7.27-.93-.13-1.14-.63,0-.03,0-.05,0-.08h-98.94l46.6-48.41c29.47,27.53,52,35.4,68.12,35.4s25.12-7.31,29.22-11.36c10.83-10.69,13.03-27.84,6.18-48.3-.94-2.81-2.05-5.67-3.32-8.55-.05,0-.1.02-.14.03,0-.11,0-.23,0-.34-1.14-2.57-2.4-5.16-3.78-7.76-1.18.22-2.42.19-2.99-.2-.25-.38-.28-.78.03-1.09.16-.17,1.02-.34,2.02-.46-1.85-3.37-3.89-6.75-6.12-10.13-.16.06-.33.09-.5.11-.29.03-.62.6-.93-.08-.31-.67-.82-1.26-1.16-1.92-.14-.28-.07-.66-.09-1,.25.03.51.02.73.11.04.01.07.04.11.05-6.03-8.76-13.25-17.47-21.45-25.78l-.49-.51c-.1.09-.23.16-.42.16-.1-.17-.33-.41-.28-.52.04-.08.07-.18.11-.28l-3.72-3.9c-.16-.09-.32-.18-.47-.29-.32-.24-.59-.46-.58-.82l-.61-.64-3.52,3.66c.34.32.21.7,0,1.1-.31.32-.6.45-1.05.21-.05-.03-.09-.06-.13-.09l-29.03,30.19c.08.24.16.49.25.73.14.37.12.53-.29.49-.24-.03-.61-.08-.69-.23-.02-.05-.05-.1-.07-.15l-2.07,2.15-.56.58c-.07.12-.17.22-.3.31l-5,5.19s.04.03.07.05c.37.35.39.7.13,1.03-.35.45-.75.71-1.31.18-.02-.02-.04-.04-.05-.06l-10.49,10.9c0,.08-.01.2,0,.29-.07-.02-.14-.04-.22-.06l-5.33,5.53-19.01-19.75c-.02.07-.04.15-.06.22-.16,0-.29,0-.42.01.06-.18.09-.38.18-.54l-1.77-1.84c-.02.14-.06.31-.1.43-.13.38-.4.65-.79.35-.1-.08.03-.47.05-.71.11-.25.25-.45.45-.47l-12.34-12.82c-.61.43-1.13-.37-1.67-.55-.17-.06-.75-.81,0-.68.18.03.32,0,.43-.06l-7.44-7.73c-.22-.01-.41-.07-.5-.33-.01-.04,0-.1.02-.16l-3.77-3.91c-.59,1.02-.96-.14-1.29-.41-.5-.42-1-.3-1.53-.32-.13-.6-.25-1.16-.6-1.76-.33-.57.06-.6.45-.59l-10.64-11.05c-.15.15-.33.25-.62.17-.05-.19-.21-.48-.13-.57.05-.07.11-.14.16-.22l-8.67-9.01c-.64.05-1.39.56-1.73-.34-.19-.51-.13-.97.08-1.37l-8.76-9.1c-.22.02-.48-.07-.76-.33-.6-.55-1.18-1.12-1.77-1.67,0,.09-.09.18-.27.25-.18.07-.41-.02-.61-.03,0-.14-.04-.36,0-.37.19-.06.43-.15.61-.09.18.06.28.15.28.24.12-.09.25-.16.39-.21l-7.01-7.28s-.02.02-.03.03c-.53.55-.96.32-1.32-.12-.25-.31-.39-.72.03-.96.05-.06.11-.11.16-.16l-3.51-3.65s0,0,0,0c-.14,0-.36.04-.37,0-.05-.16-.11-.34-.11-.5l-3.65-3.79c-.02.17-.11.36-.3.59-.52.63-1.26.15-1.89.36-.19-.75-.42-1.47.15-2.14.19-.23.42-.31.64-.27l-5.14-5.34c-.39.48-.65,1.13-1.47.68-.17-.09-.27-.18-.35-.28.08.45.11.92-.32,1.29-.02.02-.35-.33-.44-.41-.58-.51-.58-.94-.12-1.36.26-.24.7-.52.78-.03.02-.07.05-.12.06-.15.19-.45.37-.82.57-1.08l-3.67-3.81s0,0,0,0c-.17.51-.5.97-.94,1.81-.07.1-.33.57-.68.95-.1.11-.51.04-.72-.07-.21-.11-.51-.42-.47-.55.32-.98.73-1.88.52-3-.07-.39.37-.76.89-.61l-2.45-2.55c.19.35.38.69.3.98-.12.45.21,1.13-.68.97-.4-.07-1.13.44-1.09-.55.01-.28.01-.56-.02-.83-.15-1.12-.41-2.01-1.23-1.99l-3.86,4.01c-.02.26-.09.49-.21.67-.69.99-.14,2.89-2.01,3-.39.02-.97.35-1.24-.08l-1.79,1.86c.52-.2,1.03-.44,1.6-.02.18.13.25.43.37.65-.75.07-1.44.82-2.23.2-.1-.08-.16-.2-.22-.33l-.27.28c1.39.17,1.38,1.5,1.43,2.69.16-.04.34-.04.45.02.49.26.77.61.9,1.03.07-.04.14-.07.22-.13.4-.27,1.02-.21,1.54-.29.14-.02.28,0,.41-.01-.05.25-.1.51-.15.76-.49.43-.79,1.17-1.63,1.04-.16-.03-.3,0-.43.04-.08.22-.24.35-.46.34-.04.05-.08.11-.11.17-.33.68.43,2.42-1.35,1.66-1.42-.61.39-1.51.12-2.45-.3-1.07-.27-2.02-1.68-1.01-.36.26-.68.28-1.06-.08-.59-.57-.31-1.12.16-1.33.58-.25.6-.86.65-1.42l-8.17,8.49c-.13.43-.32.86-.58,1.28-.43.7.26,1.52-.6,2.02-.4.24-.67.35-1.14.07-.19-.15-.32-.34-.41-.55l-14.68,15.24c.1-.01.2-.02.22.01.11.17.16.38.23.57-.13,0-.26,0-.42.01-.05-.15-.1-.31-.15-.47l-9.19,9.55c.17-.08.37-.07.62.17-.15.63.33,1.36-.3,1.88-.92.76-1.25-.14-1.72-.6l-7.5,7.79c.12.13.24.29.35.38.29.24.87.55.58.93-.51.65-.8-.14-1.16-.35-.09-.11-.23-.22-.36-.33l-112.8,117.16c.07,0,.14,0,.21.02.07.02.08.23.12.36-.21,0-.41,0-.61,0,0-.03-.01-.05-.02-.07l-14.51,15.07s.04.03.06.04c.1.07.04.4.06.59-.29.18-.51.12-.72,0l-12.91,13.4c.06.39.13.77.19,1.16-.24-.03-.49-.07-.74-.1-.12-.06-.21-.12-.28-.19l-3.25,3.38c.19.47.31.9.26,1.11-.02.08-.17.13-.26.19-.25.32-.97.4-1.52.28l-1.94,2.01h5.31s.03-.07.05-.11c.36-.68.8-.53,1.31-.26.23.12.46.24.69.36h17.69c-.6-.34-.58-1.01-.75-1.55-.18-.58.07-1.09.69-1.16.56-.06,1.13.34.99.89-.14.52-.29.94-.11,1.49.05.15.06.25.05.32h9.92c-.07-.28-.13-.55-.02-.67.59-.63,1.31-1.14,1.99-1.68.08-.06.23-.04.34-.05,0,.25.09.53,0,.74-.2.5-.49.96-.74,1.43-.04.07-.08.15-.11.22h34.08c-.15-.44-.35-.87-.31-1.28.04-.44.49-.33.85-.15.7.34.52.83.22,1.28-.04.06-.1.11-.18.15h402.92s0-.02,0-.03c-.03-.11.24-.45.36-.45.33.02.45.24.52.48h7.25c.21-.6.31-1.29,1.08-1.49.39-.1.71.03.88.5.2.57.02.81-.3.98h20.29s0-.06,0-.09c.04.03.08.06.13.09h10.83c-.29-.84.56-2.38,1.39-2.15.88.24,1.51.03,2.27-.16,1-.25,1.01.73,1.15,1.27.37,1.48-.56.49-1.01.49ZM641.73,405.55c.15.14.33.25.44.42.04.06-.09.22-.14.34-.16-.13-.31-.26-.46-.38.06-.14.11-.26.16-.38ZM639.44,414.6c.03.19-.02.4-.04.6-.12-.05-.23-.1-.38-.16.03-.19.05-.39.08-.59.12.05.32.09.33.16ZM638.57,404.17c.15.14.33.25.44.42.04.06-.09.22-.14.34-.16-.13-.31-.26-.46-.38.06-.14.11-.26.16-.38ZM638.55,410.46c.13-.03.37.3.49.5.2.34.23.71-.24.81-.13.03-.33-.32-.5-.49-.18-.36-.22-.72.25-.82ZM623.76,382.03c-.12-.05-.32-.09-.33-.16-.03-.19.02-.4.04-.6.12.05.23.1.38.16-.03.19-.05.39-.08.59ZM626.57,391.41c-.15-.14-.33-.25-.44-.42-.04-.06.09-.22.14-.34.16.13.31.26.46.38-.06.14-.11.26-.16.38ZM627.16,392.92c-.12-.05-.32-.09-.33-.16-.03-.19.02-.4.04-.6.12.05.23.1.38.16-.03.19-.05.39-.08.59ZM628.78,395.03c-.28-.35-.56-.61-.7-.93-.08-.19.08-.47.13-.71.25.26.56.49.72.8.09.17-.08.47-.16.84ZM630.92,388.59c-.25.24-.6.38-.89.59-.15.11-.27.16-.35.13.08.04.12.15.11.34-.01.18-.19.36-.28.53-.12-.05-.33-.11-.33-.15.02-.2.05-.44.17-.58.12-.13.24-.18.32-.15-.08-.04-.12-.14-.13-.32.12-.6.55-.81,1.07-.82.35,0,.51.24.31.42ZM632.3,392.65c-.15-.14-.33-.25-.44-.42-.04-.06.09-.22.14-.34.15.14.33.25.44.42.04.06-.09.22-.14.34ZM634.1,410.96c-.43.08-.95-.3-1.43-.47.26-.6.35-1.32.7-1.5.63-.32.71.44.85.85.13.37.71.97-.12,1.12ZM636.57,410.2c-.15-.14-.33-.25-.44-.42-.04-.06.09-.22.14-.34.15.14.33.25.44.42.04.06-.09.22-.14.34ZM644.85,420.9c-.34.2-.74.31-1.16.47-.9.57-1.9.32-2.93.33-2.6.01-2.52.11-2.78-2.23-.12-1.04.08-1.77.92-2.34,1.1-.75,2.23.17,3.35-.04.07-.01.38.5.32.65-.53,1.21-.24,1.55,1.05,1.2.3-.08.72.31,1.1.44.47.16.53.58.57.94.02.18-.24.46-.44.57ZM647.2,415.46c-.16-.18-.32-.36-.49-.55-.3-.67.15-.93.67-1.08.21-.06.47.08.71.14-.3.5-.6.99-.9,1.49ZM649.44,427.73c-.14-.06-.26-.11-.38-.16.14-.15.25-.33.42-.44.06-.04.22.09.34.14-.13.16-.26.31-.38.46ZM650.12,410.64c-.53.8-.61-.11-.86-.33-.11-.58-.78-1.19.12-1.64.53-.27.85-.11,1.2.43.5.78-.21,1.16-.46,1.55ZM658.13,438.39c-.33.21-.86.67-1.23-.09.53-.55.11-1.22.24-1.81.05-.26.56-.45.88-.64,1.06-.65,1.34.08,1.64.89.61,1.6-.9,1.24-1.53,1.66ZM663.34,425.01c-.47-.21-.95-.41-1.44-.63.12-.71.24-1.41.98-1.8.43-.23.75-.05.94.31.45.83-.27,1.42-.48,2.12ZM666.18,430.01c-.2-.14-.48-.24-.58-.44-.27-.49-.3-.97.29-1.22.32,0,.73-.08.77,0,.28.65-.35,1.09-.47,1.65ZM667.33,441.8c-.12-.05-.23-.1-.38-.16.03-.19.05-.39.08-.59.12.05.32.09.33.16.03.19-.02.4-.04.6ZM669.5,432.08c-.14-.06-.26-.11-.38-.16.14-.15.25-.33.42-.44.06-.04.22.09.34.14-.13.16-.26.31-.38.46ZM517.54,386.32c-.11-.17-.16-.38-.23-.57.13,0,.26,0,.42-.01.06.19.12.39.18.58-.13,0-.34.06-.38,0ZM557.12,437.03c-.4-.12-.66-.37-.73-.86.04-.17.09-.41.14-.66.25.26.56.49.72.8.09.17-.08.47-.13.71ZM577.99,440.9c-.41.25-.62-.05-.74-.43,0-.24-.08-.63.03-.7.41-.25.65.04.73.43.05.23.09.63-.02.7ZM590.23,430.14c-.2-.14-.4-.28-.7-.49.03-.3.07-.66.1-1.02.2.14.53.25.58.43.09.34.02.72.02,1.08ZM603.1,425.09c-.12-.05-.23-.1-.38-.16.03-.19.05-.39.08-.59.12.05.32.09.33.16.03.19-.02.4-.04.6ZM608.63,406.15c-.13.03-.33-.32-.5-.49-.18-.36-.22-.72.25-.82.13-.03.37.3.49.5.2.34.23.71-.24.81ZM612.03,406.71c.7-.27.98.11,1.12.65.11.4-.03.71-.5.89-.7.27-.93-.13-1.14-.63-.04-.44.04-.73.51-.91ZM611.48,413.06c.2.14.4.28.7.49-.03.3-.07.66-.1,1.02-.2-.14-.53-.25-.58-.43-.09-.34-.02-.72-.02-1.08ZM610.38,418.1c.22.53.78,1.17-.2,1.61-.44.2-.72.05-1.01-.29-.45-.84.28-1.43.49-2.13.25.27.59.5.72.81ZM607.51,397.99c.97-.25,2.27.39,2.4,1.08.13.7-.48.76-.92,1.01-1.07.6-1.37-.07-1.65-.89-.18-.53-.3-1,.18-1.19ZM606.25,410.93c.09.02.41-.02.47.1.26.44.52.98-.11,1.3-.29.14-.71.03-1.07.03.23-.46.46-.92.71-1.43ZM605.12,427.63c-.19.03-.4-.02-.6-.04.05-.12.1-.23.16-.38.19.03.39.05.59.08-.05.12-.09.32-.16.33ZM604.95,415.42c.14.3.02.71.01,1.07-.48-.21-.95-.42-1.45-.63.05-.2.03-.51.15-.58.44-.26.99-.51,1.29.14ZM604.45,403.16c.13.34-.23,1.22-.57,1.34-.94.33-.64-.76-.98-1.07-.22-.42-.23-.89.19-.88.48.02,1.22.27,1.35.61ZM603.69,377.18c.02-.07.23-.08.36-.12,0,.21.02.42-.03.61-.02.07-.23.08-.36.12,0-.21-.02-.42.03-.61ZM602.69,394.24c.3.14.48.54.72.82-.51.16-1.02.31-1.55.47-.1-.18-.31-.41-.27-.55.17-.5.43-1.05,1.09-.75ZM600.7,388.44c-.3.14-.71.02-1.07.01.21-.48.42-.95.63-1.45.2.05.51.03.58.15.26.44.51.99-.14,1.29ZM599.29,378.08c.24-.35.57-.45,1.02-.2.68.37.52.81.27,1.3-.31.32-.6.45-1.05.21-.67-.37-.56-.83-.24-1.3ZM598.13,390.87c.13-.2.36-.34.54-.5.25.54.49,1.08.74,1.62-.25.02-.5.05-.76.07-.47-.27-.95-.54-.52-1.19ZM597.53,422.03c.15.14.33.25.44.42.04.06-.09.22-.14.34-.16-.13-.31-.26-.46-.38.06-.14.11-.26.16-.38ZM593.13,360.93c.53.21.91.56.5,1.24-.14.47-.54.54-.93.38-.53-.21-.88-.54-.53-1.22.24-.46.57-.56.96-.4ZM591.47,357.44c.2-.29.54-.49.83-.73.02.25.05.5.08.87-.26.18-.56.39-.86.6-.02-.25-.16-.57-.05-.73ZM589.42,365.83c.49.3,1.22.22,1.48.87.03.08-.32.32-.51.49-.66.3-.94-.11-1.09-.64-.06-.21.07-.47.12-.71ZM590.34,375.43c-.19.16-.44.48-.56.44-.47-.15-.4-.53-.15-.85.15-.19.43-.49.55-.45.47.15.38.52.16.86ZM587.7,362.74c-.24.46-.55.5-.98.41-.48-.27-.86-.54-.5-1.22.24-.45.57-.56.96-.4.53.21.88.54.53,1.22ZM587.61,373.5c-.12.04-.31.15-.36.1-.15-.13-.25-.32-.37-.49.12-.04.25-.08.4-.12.11.17.22.34.33.51ZM586.71,345.18c.17.17.39.32.49.52.39.84-.5,1.25-.41,2.19-.45-.47-.71-.62-.77-.82-.23-.78.15-1.38.69-1.9ZM584.18,352.42c.11.15.09.4.13.6-.13.04-.33.13-.35.1-.11-.17-.26-.37-.25-.56.01-.39.24-.46.47-.14ZM582.08,350.27c.22-.42.55-.51.95-.35.88.37.98,1.3.95,1.97-.04.83-.51-.25-.74.05-.57-.5-1.8-.44-1.16-1.66ZM579.38,335.67c.18.26.39.56.6.86-.25.02-.57.16-.73.05-.29-.2-.49-.54-.73-.83.25-.02.5-.05.87-.08ZM577.72,353.23c.06-.1.51-.12.59-.02.32.41-.07.75-.26,1.06-.06.1-.4.04-.59.06-.3-.47.07-.79.26-1.1ZM576.94,348.52c-.1-.06-.12-.51-.02-.59.41-.32.75.07,1.06.26.1.07.04.4.06.59-.47.3-.78-.07-1.1-.26ZM578.02,354.56c.2.14.53.25.58.43.09.34.02.72.02,1.08-.2-.14-.4-.28-.7-.49.03-.3.07-.66.1-1.02ZM576.94,344.07c.21-.53.54-.88,1.22-.53.46.24.56.57.4.96-.17.43-.44.76-.89.65-.1.09-.21.17-.31.25-.09.08-.39-.06-.58-.1-.09-.28,0-.47.14-.63-.08-.18-.06-.39.02-.6ZM575.56,338.11c.13-.15.32-.25.49-.37.04.12.08.25.12.4-.17.11-.34.22-.51.33-.04-.12-.15-.31-.1-.36ZM573.28,330.66c.27,0,.69.15.79.52-.03-.13.16-.42.24-.63.25-.32.57-.52.86-.12.08.11-.12.47-.25.67-.22.33-.55.52-.85.14,0,.05.02.1.01.16-.03.7-.13,1.4-.19,2.1-.25-.03-.49-.07-.74-.1-.62-.23-.39-.96-.74-1.32-.44-.46-1.31-.37-1.53-1.14.79-.1,1.59-.27,2.38-.27ZM574.21,336.75c-.13.38-.4.65-.79.35-.1-.08.03-.47.05-.71.16-.37.41-.65.8-.35.1.08.01.48-.06.71ZM573.01,347.88c-.21,0-.42.02-.61-.03-.07-.02-.08-.23-.12-.36.21,0,.41,0,.61,0,.05.15.08.27.12.4ZM570.41,337.02c.27-.24.55-.15.52.12-.04.36-.21.69-.29,1.05-.04.19-.1.3-.18.33.09-.02.2.04.31.19.11.15.09.4.13.6-.13.04-.33.13-.35.1-.11-.17-.26-.37-.25-.56,0-.18.06-.29.14-.33-.08.02-.18-.03-.31-.17-.31-.55-.11-.99.28-1.34ZM569.08,349.08c.04.12.15.31.1.36-.13.15-.32.25-.49.37-.04-.12-.08-.25-.12-.4.17-.11.34-.22.51-.33ZM567.7,329.56c.16-.37.41-.65.8-.35.1.08.01.48-.06.71-.13.38-.4.65-.79.35-.1-.08.03-.47.05-.71ZM567.48,334.56c.12.04.24.49.17.56-.26.26-.39.78-.97.56-.04-.15-.2-.44-.12-.54.24-.28.43-.76.92-.59ZM564.11,326.66c-.1-.06-.12-.51-.02-.59.41-.32.75.07,1.06.26.1.07.04.4.06.59-.47.3-.78-.07-1.1-.26ZM564.83,345.41c-.37.45-.93-.04-1.59-.37-.1-.13-.31-.43-.53-.72.58-.12,1.21-.43,1.71-.29.27.07.59,1.15.41,1.38ZM566.57,330.84c.02.25.04.5.06.76-.27.48-.57.92-1.2.49-.2-.13-.5-.46-.46-.53.34-.63,1.07-.46,1.6-.71ZM565.68,324.5c.23-.13.45-.25.66-.37.06.59.65,1.1.29,1.73-.05.08-.48,0-.7-.09-.72-.29-.48-.79-.25-1.27ZM565.29,321.97c.46-.55.91-.35,1.29.09.15.17.15.47.21.71-.59-.03-1.18-.07-1.76-.1.09-.23.18-.46.27-.7ZM564.09,324.66c.48-.2.7.26.95.54.08.09-.06.39-.1.58-.54.16-.74-.28-.99-.55-.08-.08.03-.52.14-.57ZM562.1,329.5c.35-.77.86-.66,1.33-.33.35.24.45.57.2,1.02-.37.67-.84.57-1.3.24-.33-.23-.57-.59-.23-.93ZM560.96,334.6c.07.02.08.23.12.36-.21,0-.41,0-.61,0-.05-.15-.08-.27-.12-.4.21,0,.42-.02.61.03ZM560.22,332.15c.04.12.15.31.1.36-.13.15-.32.25-.49.37-.04-.12-.08-.25-.12-.4.17-.11.34-.22.51-.33ZM557.49,336.06c.08-.05.15-.09.23-.12,0-.04,0-.07,0-.12.08-.41-.37-1.09.59-1.07.12,0,.23,0,.34,0,0-.1,0-.2.03-.29.02-.07.23-.08.36-.12,0,.14,0,.28-.01.42.34.05.56.23.46.91-.04.24-.02.49,0,.75.44.19.89.27,1.37-.15.12.39.2.8.37,1.17.28.62-.24.55-.54.7-.68.34-.88.06-1.29-.47-.14.17-.37-.04-.57-.13-.21.29-.39.9-.79.82-.48-.61-1.06-1.13-1.33-1.78-.21-.49.51-.34.78-.52ZM557.83,341.5c.24.14.13,1,.03,1.5-.04.21-.66-.06-1.45-.86-.05-.13-.18-.47-.3-.82.59.04,1.28-.09,1.72.18ZM554.4,342.56c.53-.42.95.26,1.43.43.38.13.73.5.37.79-.53.42-.94-.3-1.37-.39-.44-.19-.79-.54-.43-.82ZM555.39,347.45c-.37-.16-.65-.41-.35-.8.08-.1.48-.01.71.06.38.13.65.4.35.79-.08.1-.47-.03-.71-.05ZM555.74,355.62c-.12.04-.31.15-.36.1-.15-.13-.25-.32-.37-.49.12-.04.25-.08.4-.12.11.17.22.34.33.51ZM553.95,348.98c-.14.34-.22.73-.43,1.02-.12.15-.47.13-.85.22.21-.41.32-.78.56-1.05.14-.15.47-.13.71-.19ZM553.17,341.58c.06.04.02.25.02.38-.2-.05-.4-.1-.59-.15,0-.16,0-.29-.01-.42.2.06.41.09.58.2ZM553.07,353c.08.04-.04.46-.07.72-.31.67-.81.54-1.27.22-.19-.12-.26-.42-.38-.63.58-.09,1.1-.64,1.72-.31ZM547.01,342.05c.72-.96,1.72-1.03,2.81-.41.86.49.57.96.28,1.63-.68,1.56-1.48.44-2.27.16-.46-.34-1.48-.51-.82-1.38ZM546.98,357.11c.49.17,1.05.42.77,1.08-.13.3-.53.49-.81.73-.13-.51-.26-1.02-.41-1.57.09-.06.32-.29.44-.25ZM545.83,345.36c.07.02.08.23.12.36-.21,0-.41,0-.61,0-.05-.15-.08-.27-.12-.4.21,0,.42-.02.61.03ZM543.35,367.97c-.53.42-.94-.3-1.37-.39-.44-.19-.79-.54-.43-.82.53-.42.95.26,1.43.43.38.13.73.5.37.79ZM541.76,352.82c.24-.28.43-.76.92-.59.12.04.24.49.17.56-.26.26-.39.78-.97.56-.04-.15-.2-.44-.12-.54ZM542.23,360.23c.18.07.25.41.44.76-.45-.09-.84-.1-1.16-.26-.18-.09-.25-.42-.37-.64.37.04.76.01,1.09.14ZM540.29,357.31c.49.17,1.05.42.77,1.08-.13.3-.53.49-.81.73-.13-.51-.26-1.02-.41-1.57.09-.06.32-.29.44-.25ZM538.64,349.2c.02-.07.23-.08.36-.12,0,.21.02.42-.03.61-.02.07-.23.08-.36.12,0-.21-.02-.42.03-.61ZM537.51,359.9c.19-.22.82-.93.81-.65-.07,1.08,1.81,1.04,1.13,2.29-.38.69-.81.46-1.32.23-.81-.37-1.49-.77-.61-1.87ZM534.37,364.04c.6-.22,1.27-.45,1.88-.39.53.05.91.55.49,1.17-.34.49-.33,1.38-1.3,1.18-.35-.11-1.29-1.88-1.07-1.96ZM533.09,354.58c.15.13.25.32.37.49-.12.04-.25.08-.4.12-.11-.17-.22-.34-.33-.51.12-.04.31-.15.36-.1ZM533.67,361.76c-.12.04-.25.08-.4.12-.11-.17-.22-.34-.33-.51.12-.04.31-.15.36-.1.15.13.25.32.37.49ZM532.34,373.44c.13-.15.32-.25.49-.37.04.12.08.25.12.4-.17.11-.34.22-.51.33-.04-.12-.15-.31-.1-.36ZM532.91,375.41c.08-.08.52.03.57.14.2.48-.26.7-.54.95-.09.08-.39-.06-.58-.1-.16-.54.28-.74.55-.99ZM532.13,378.81c-.25.02-.5.05-.76.07-.47-.27-.95-.54-.52-1.19.13-.2.36-.33.54-.5.25.54.49,1.08.74,1.62ZM531.01,363.81c.15.13.25.32.37.49-.12.04-.25.08-.4.12-.11-.17-.22-.34-.33-.51.12-.04.31-.15.36-.1ZM529.47,359.37c.02-.07.23-.08.36-.12,0,.21,0,.41,0,.61-.15.05-.27.08-.4.12,0-.21-.02-.42.03-.61ZM529.2,361.91c.15.13.25.32.37.49-.12.04-.25.08-.4.12-.11-.17-.22-.34-.33-.51.12-.04.31-.15.36-.1ZM536.12,376.71c-.3-.16-.58-.42-.87-.48-.79-.37-1.58-.67-.83-1.75.7-1.01,1.92-1.54,2.62-1.05.43.3.62,1.02.56,1.74,4.34-4.53,8.87-9.27,13.06-13.65l14.69-15.25c3.85,4.3,7.37,8.68,10.56,13.06,0,0,.01,0,.02-.01.14-.07.48.2.69.36.09.06.09.25.13.38-.09.02-.17.05-.25.07,3.01,4.2,5.69,8.41,8.02,12.58.12-.09.27-.2.35-.17.34.15.85.21.81.73,0,.12-.4.36-.49.31-.07-.04-.14-.06-.22-.09,3.02,5.48,5.43,10.88,7.17,16.06,4.46,13.32,3.84,24.09-1.7,29.55-13.91,13.74-41.04,4.45-71.82-24.12,3.12-3.23,9.93-10.34,17.52-18.28ZM526.47,362.34c.07.02.08.23.12.36-.21,0-.41,0-.61,0-.05-.15-.08-.27-.12-.4.21,0,.42-.02.61.03ZM525.87,386.47c.07.02.08.23.12.36-.21,0-.41,0-.61,0-.05-.15-.08-.27-.12-.4.21,0,.42-.02.61.03ZM523.22,366.25c.32.1.42.89.92,2.13-.64-.05-1.3.1-1.64-.17-.42-.34-.58-1.02-.85-1.55.53-.16,1.13-.55,1.56-.41ZM520.85,377.37c.41-.32.75.07,1.06.26.1.07.04.4.06.59-.47.3-.78-.07-1.1-.26-.1-.06-.12-.51-.02-.59ZM519.33,386.4c-.15-.13-.25-.32-.37-.49.12-.04.25-.08.4-.12.11.17.22.34.33.51-.12.04-.31.15-.36.1ZM518.7,381.69c.25.54.49,1.07.75,1.64-.35.02-.63.11-.84.03-.54-.22-.89-.59-.48-1.19.13-.19.37-.32.56-.47ZM517.37,370.06c.14-.15.47-.13.72-.19-.14.34-.22.73-.43,1.02-.12.15-.47.13-.85.22.21-.41.32-.78.56-1.05ZM514.81,373.63c.38.38.77.78.18,1.29-.18.16-.43.23-.65.34-.09-.58-.19-1.17-.28-1.75.25.04.49.09.75.13ZM513.27,401.95c.24-.35.57-.45,1.02-.2.67.37.56.83.24,1.3-.24.34-.6.52-.99.2-.72-.33-.6-.83-.28-1.31ZM512.19,397.2c.02-.07.23-.08.36-.12,0,.21.02.42-.03.61-.02.07-.23.08-.36.12,0-.21-.02-.42.03-.61ZM511.77,377.06c.11.17.22.34.33.51-.12.04-.31.15-.36.1-.15-.13-.25-.32-.37-.49.12-.04.25-.08.4-.12ZM511.61,377.69c.11.17.15.38.23.57-.13,0-.26,0-.42.01-.06-.19-.12-.39-.18-.58.13,0,.34-.06.38,0ZM509.74,382.6c.15.13.25.32.37.49-.12.04-.25.08-.4.12-.11-.17-.22-.34-.33-.51.12-.04.31-.15.36-.1ZM507.91,391.97c.07.02.08.23.12.36-.21,0-.41,0-.61,0-.05-.15-.08-.27-.12-.4.21,0,.42-.02.61.03ZM190.19,473.89c-.15-.13-.25-.32-.37-.49.12-.04.25-.08.4-.12.11.17.22.34.33.51-.12.04-.31.15-.36.1ZM204.3,462.31c.14-.33,1.09-.65,1.43-.48.49.25.79,1.07.47,1.6-.23.37-.93.46-1.42.67-.24-.77-.65-1.4-.48-1.79ZM202.83,464.81c.37-.67.83-.56,1.3-.24.35.24.45.57.2,1.02-.37.68-.81.52-1.3.27-.32-.31-.45-.6-.21-1.05ZM193.36,472.93c0-.21-.02-.42.03-.61.02-.07.23-.08.36-.12,0,.21,0,.41,0,.61-.15.05-.27.08-.4.12ZM196.73,469.88c-.05-.15-.08-.27-.12-.4.21,0,.42-.02.61.03.07.02.08.23.12.36-.21,0-.41,0-.61,0ZM197.2,467.41c-.32-.18-.85-.17-.8-.78.13-.08.37-.31.48-.26.34.15.85.21.81.73,0,.12-.4.36-.49.31ZM202.58,470.62c-.49,1.01-2.05,1.72-2.63,1.07-.63-.7-.99-1.61-.34-2.57.47-1.09,1.5-1.35,2.35-.95.9.43,1.11,1.44.62,2.45ZM204.42,473.83c-.22.02-.45-.05-.67-.09.02.09-.04.2-.19.31-.15.11-.4.09-.6.13-.04-.13-.13-.33-.1-.35.17-.11.37-.26.56-.25.19,0,.3.07.33.15.06-.11.11-.21.17-.32.2-.04.51-.17.59-.09.24.24.17.49-.09.5ZM206.88,471.13c-.52.57-1.38-.03-2.15.05-.76.07-.07-.7-.01-1.02.3-.75.75-1.36,1.45-.71.43.4.89,1.48.71,1.69ZM208.69,468.85c0-.21-.02-.42.03-.61.02-.07.23-.08.36-.12,0,.21,0,.41,0,.61-.15.05-.27.08-.4.12ZM215.58,453.24c-.21,0-.42.02-.61-.03-.07-.02-.08-.23-.12-.36.21,0,.42-.02.61.03.07.02.08.23.12.36ZM214.05,447.26c.41.36,1.46.27,1.07,1.16-.14.32-.95.34-1.46.49-.14-.51-.27-1.01-.43-1.6.17-.34.51-.31.82-.05ZM213.11,453.16c-.07-.02-.08-.23-.12-.36.21,0,.42-.02.61.03.07.02.08.23.12.36-.21,0-.42.02-.61-.03ZM214.98,469.34c-.32-.18-.85-.17-.8-.78.13-.08.37-.31.48-.26.34.15.85.21.81.73,0,.12-.4.36-.49.31ZM215.58,464.8c-.06-.09-.29-.32-.25-.44.17-.49.42-1.05,1.08-.77.3.13.49.53.73.81-.51.13-1.02.26-1.57.41ZM218.9,457.57c-.24.34-.6.52-.99.2-.72-.33-.6-.83-.28-1.31.24-.35.57-.45,1.02-.2.67.37.56.83.24,1.3ZM221.45,463.39c-.13.38-.4.65-.79.35-.1-.08.03-.47.05-.71.16-.37.41-.65.8-.35.1.08.01.48-.06.71ZM221.45,446.35c-.05-.15-.08-.27-.12-.4.21,0,.42-.02.61.03.07.02.08.23.12.36-.21,0-.41,0-.61,0ZM222.85,458.95c-.06.1-.4.04-.59.06-.3-.47.07-.79.26-1.1.06-.1.51-.12.59-.02.32.41-.07.75-.26,1.06ZM502.74,384.62c.18-.31.54-.5.82-.75.17.73.82,1.43.24,2.21-.23.32-.6.55-.88.26-1.05-.6-.48-1.2-.18-1.72ZM498.23,390.41c.04.12.15.31.1.36-.13.15-.32.25-.49.37-.04-.12-.08-.25-.12-.4.17-.11.34-.22.51-.33ZM496.6,389.68c.41.24.39.59.12.88-.36.39-.25,1.48-1.15,1.04-.32-.16-.34-.96-.49-1.46.51-.16,1.01-.31,1.52-.47ZM493.6,376.97c.2.06.41.09.58.2.06.04.02.25.02.38-.2-.06-.41-.09-.58-.2-.06-.04-.02-.25-.02-.38ZM489.23,381.06c.05.15.08.27.12.4-.21,0-.42.02-.61-.03-.07-.02-.08-.23-.12-.36.21,0,.41,0,.61,0ZM483.55,363.44c.25-.32.57-.52.86-.12.08.11-.11.47-.25.67-.22.34-.56.52-.85.13-.08-.11.15-.44.24-.67ZM482.21,367.49c.17-.11.38-.16.57-.23,0,.13,0,.26.01.42-.19.06-.39.12-.58.18,0-.13-.06-.34,0-.38ZM476.89,360.75c.18,0,.57-.04.57-.01.09.63.73,1.2.28,1.88-.28.42-.33,1.29-.91,1.15-.85-.2,0-.76-.04-1.15-.06-.63-.54-1.25.1-1.86ZM472.51,356.09c.3.13.49.53.73.81-.51.13-1.02.25-1.58.39-.05-.08-.28-.3-.24-.43.17-.49.42-1.05,1.08-.77ZM467.99,352.68c.12-.08.55-.55.7-.47.57.28,1.41.32,1.58,1.08.1.47-.28,1.32-.1,1.43.9.53,1.22,1.14.3,1.77-.65.45-1.34-.25-1.77-.64-1.2-1.07-1.38-2.04-.71-3.18ZM470.33,362.89c-.2-.06-.41-.09-.58-.2-.06-.04-.02-.25-.02-.38.2.05.4.1.59.15,0,.16,0,.29.01.42ZM466.47,356.94c-.31.77-.81.07-1.22-.03-.31-.23-.99-.31-.8-.76.31-.76.83-.13,1.22.05.34.16.98.29.8.74ZM466.31,360.87c-.47.3-.78-.07-1.1-.26-.1-.06-.12-.51-.02-.59.41-.32.75.07,1.06.26.1.07.04.4.06.59ZM465.21,346.58c.2.05.4.1.59.15,0,.16,0,.29.01.42-.2-.06-.41-.09-.58-.2-.06-.04-.02-.25-.02-.38ZM460,337.69c.3-.3.72-.14,1.09.07.59.34,1.19.64,1.79.96s1.2.63,1.79.96c.41.23.48.56.3.99-.18.43-.6.74-.9.53-1.01-.69-1.84-.84-2.65.27-.06.08-.85-.14-.97-.38-.34-.73-.47-1.55-.77-2.31-.19-.49.06-.84.3-1.09ZM464.13,343.73c-.47.3-.78-.07-1.1-.26-.1-.06-.12-.51-.02-.59.41-.32.75.07,1.06.26.1.07.04.4.06.59ZM460.53,347.29c-.13-.63.33-.96.91-1.52.1-.04.45-.16.8-.28.13.64-.31.99-.71,1.32-.28.23-.67.33-1.01.48ZM461.39,350.87c-.14.3-.54.48-.82.72-.16-.51-.31-1.02-.47-1.55.18-.1.41-.31.55-.27.5.17,1.05.43.75,1.09ZM458.48,350.28c.23.1.49.16.68.3.32.24.59.54.88.82.29.28.56.58.88.82.38.29.44.65.24,1.02-.29.55-.85.6-1.38.51-.28-.05-.75.41-.87-.33-.12-.73-.45-1.43-.6-2.16-.06-.3.11-.66.18-.98ZM456.2,354.9c.27-.23.66-.33.99-.48-.04.25-.09.5-.15.86-.29.1-.64.22-.99.34.04-.25,0-.6.15-.72ZM455.51,337.8c.15.13.25.32.37.49-.12.04-.25.08-.4.12-.11-.17-.22-.34-.33-.51.12-.04.31-.15.36-.1ZM452.92,337.36c.15.13.25.32.37.49-.12.04-.25.08-.4.12-.11-.17-.22-.34-.33-.51.12-.04.31-.15.36-.1ZM451.23,328.15c0,.13.06.34,0,.38-.17.11-.38.16-.57.23,0-.13,0-.26-.01-.42.19-.06.39-.12.58-.18ZM450.39,330.69c.1.29.22.64.34.99-.25-.04-.6,0-.72-.15-.23-.27-.33-.66-.48-.99.25.04.5.09.86.15ZM449.8,343.23c.15.13.25.32.37.49-.12.04-.25.08-.4.12-.11-.17-.22-.34-.33-.51.12-.04.31-.15.36-.1ZM449.08,345.47c.33-.35.67-.35,1-.08.75.59.6,1.52.39,2.15-.26.79-.43-.38-.73-.16-.42-.64-1.61-.9-.67-1.91ZM450.49,348.72c-.14,0-.36.04-.37,0-.06-.19-.15-.43-.09-.61.12-.37.36-.38.49-.01.07.18-.02.41-.03.61ZM447.23,338.97c-.35.46-.79.73-1.33.15-.42-.26-.37-.67-.12-1,.34-.45.75-.71,1.31-.18.38.35.38.7.13,1.03ZM447.36,352.56c-.21,0-.42.02-.61-.03-.07-.02-.08-.23-.12-.36.21,0,.42-.02.61.03.07.02.08.23.12.36ZM446.57,336.02c0,.12-.39.36-.5.31-.34-.15-.82-.21-.83-.76.17-.1.41-.33.52-.28.34.15.85.21.81.73ZM446.05,332.01c.17-.11.38-.16.57-.23,0,.13,0,.26.01.42-.19.06-.39.12-.58.18,0-.13-.06-.34,0-.38ZM445.12,330.34c-.22.34-.56.52-.85.13-.08-.11.15-.44.24-.67.25-.32.57-.52.86-.12.08.11-.12.47-.25.67ZM444.65,347.3c.2.48-.26.7-.54.95-.09.08-.39-.06-.58-.1-.16-.54.28-.74.55-.99.08-.08.52.03.57.14ZM444.59,342.41c-.08-.08.03-.52.14-.57.48-.2.7.26.95.54.08.09-.06.39-.1.58-.54.16-.74-.28-.99-.55ZM446.8,329.41c.15.13.25.32.37.49-.12.04-.25.08-.4.12-.11-.17-.22-.34-.33-.51.12-.04.31-.15.36-.1ZM445.85,324.23c.3.09.76.42.59.92-.22.67-.5,1.31-.75,1.97-.23-.1-.46-.19-.69-.29-.54-.39-.12-1.02-.36-1.47-.3-.56-1.16-.71-1.17-1.51.79.12,1.6.16,2.37.38ZM443.16,320.11c.08-.1.48-.01.71.06.38.13.65.4.35.79-.08.1-.47-.03-.71-.05-.37-.16-.65-.41-.35-.8ZM443.53,335.03c.19.15.49.43.45.55-.15.47-.52.38-.86.16-.16-.19-.48-.44-.44-.56.15-.47.53-.4.85-.15ZM442.41,327.07c.15.13.25.32.37.49-.12.04-.25.08-.4.12-.11-.17-.22-.34-.33-.51.12-.04.31-.15.36-.1ZM441.86,329.84c-.13.33-.39.61-.56.93-.09.17-.18.26-.26.27.09,0,.18.09.25.27.07.18-.02.41-.03.61-.14,0-.36.04-.37,0-.06-.2-.15-.43-.09-.61.06-.18.14-.27.23-.28-.09,0-.17-.08-.26-.24-.15-.61.16-.98.63-1.22.32-.16.57,0,.47.26ZM433.71,349.56c-.52-.24-.47-.84-.06-1.2.31-.28.69-.52,1.09-.62-.07-.15-.1-.31-.06-.47.12-.49-.15-1.09.38-1.48.87-.64,1.13.32,1.15.33,2.01,1.21,1.57,2.78,1.41,3.99-.17,1.25-1.56.66-2.42.76-1.39.15-1.23-.4-.72-.89-.24-.13-.5-.3-.77-.41ZM433.83,360.31c-.24-.05-.49-.1-.74-.15-.39-.39-.74-.8-.15-1.29.18-.15.58-.36.64-.3.51.49.16,1.15.26,1.73ZM436.29,341.03c.19-.06.39-.12.58-.18,0,.13.06.34,0,.38-.17.11-.38.16-.57.23,0-.13,0-.26-.01-.42ZM434.75,355.72c.36-.37.67-.67,1.02-.71.15-.13.37-.2.55-.3.04.24.15.47.25.7.04.04.07.06.11.11.5.57.94,1,.22,1.56-.62.8-1.15,1.23-1.98.29-.51-.58-.84-.96-.18-1.65ZM437.46,354.02c1.2-.04,2-1.23,3.25-1.48.15-.03.41.33.57.54.07.09.02.26.02.4-1.52-.07-1.98,1.48-3.1,2-.15.07-.47-.14-.68-.27-.45-.27-.35-.64-.07-1.19ZM440.59,348.5c.04.12.15.31.1.36-.13.15-.32.25-.49.37-.04-.12-.08-.25-.12-.4.17-.11.34-.22.51-.33ZM440.38,340.17c.2.05.4.1.59.15,0,.16,0,.29.01.42-.2-.06-.41-.09-.58-.2-.06-.04-.02-.25-.02-.38ZM441.63,321.55c.08.11-.12.47-.25.67-.22.34-.56.52-.85.13-.08-.11.15-.44.24-.67.25-.32.57-.52.86-.12ZM440.18,316.26c.25-.06.5-.12.74-.18-.1.58.33,1.24-.19,1.74-.07.07-.46-.13-.65-.27-.62-.47-.25-.89.1-1.29ZM439.25,337.67c-.07.18-.41.25-.64.37-.17-.39-.15-.76.18-1.14.16-.09.38-.21.6-.33-.04.37-.01.76-.14,1.09ZM439.19,323.35c-.39.39-.8.74-1.29.15-.15-.18-.36-.58-.3-.64.49-.51,1.15-.16,1.73-.26-.05.24-.1.49-.15.74ZM438.22,317.35c.48-.2.7.26.95.54.08.09-.06.39-.1.58-.54.16-.74-.28-.99-.55-.08-.08.03-.52.14-.57ZM437.47,312.06c.16,0,.29,0,.42-.01-.06.2-.09.41-.2.58-.04.06-.25.02-.38.02.05-.2.1-.4.15-.59ZM437.37,327.15c.15-.43.41-.6.82-.53-.06.35-.05.74-.2,1.05-.08.17-.46.34-.63.29-.75-.25.08-.55,0-.8ZM435.44,314.04c.32-.27.67-.28,1.04.08.55.53.28.92-.09,1.32-.39.22-.7.28-1.06-.08-.55-.53-.32-.95.12-1.32ZM436.68,321.19c-.53.55-.96.32-1.32-.12-.25-.31-.39-.72.03-.96.55-.65,1-.4,1.37.04.27.32.28.67-.08,1.04ZM434.83,328.28c.24-.32.42-.7.72-.94.41-.33.75.11,1.1.26.76.32.07.68-.05.9-.34.65-1.72.7-1.04,1.97.1.2-.3.77-.78.73-.11,0-.18-.44-.3-.65-.48-.86-.06-1.56.35-2.28ZM432.83,313.38c.48-.2.7.26.95.54.08.09-.06.39-.1.58-.54.16-.74-.28-.99-.55-.08-.08.03-.52.14-.57ZM428.17,311.89c.1.29.22.64.35.99-.25-.04-.6,0-.72-.15-.23-.27-.33-.66-.48-.99.25.04.5.09.86.15ZM427.75,306.55c.17-.11.34-.22.51-.33.04.12.15.31.1.36-.13.15-.32.25-.49.37-.04-.12-.08-.25-.12-.4ZM429.19,325.2c1.34-.43,1.76,1.8,3.19,1.11.01.41-.02.82.04,1.22.1.67-.38.47-.71.53-.8.16-.87-.22-1.17-.93-.35-.84-.85.72-1.44.43-.29-.72-.71-1.37-.8-2.07-.07-.53.58-.2.89-.3ZM429.58,313.81c.02-.07.23-.08.36-.12,0,.21.02.42-.03.61-.02.07-.23.08-.36.12,0-.21-.02-.42.03-.61ZM430.58,324.57c.06-.2.09-.41.2-.58.04-.06.25-.02.38-.02-.06.2-.09.41-.2.58-.04.06-.25.02-.38.02ZM432.28,322.35c.19-.06.39-.12.58-.18,0,.13.06.34,0,.38-.17.11-.38.16-.57.23,0-.13,0-.26-.01-.42ZM432.35,324.94c0-.16,0-.29-.01-.42.2.06.41.09.58.2.06.04.02.25.02.38-.2-.05-.4-.1-.59-.15ZM432.95,319.52c.12-.04.31-.15.36-.1.15.13.25.32.37.49-.12.04-.25.08-.4.12-.11-.17-.22-.34-.33-.51ZM432.21,312.39c.02-.07.23-.08.36-.12,0,.21,0,.41,0,.61-.15.05-.27.08-.4.12,0-.21-.02-.42.03-.61ZM432.48,318.04c.07.02.08.23.12.36-.21,0-.42.02-.61-.03-.07-.02-.08-.23-.12-.36.21,0,.42-.02.61.03ZM430.56,308.15c.07-.18.41-.25.64-.37.17.39.15.76-.18,1.14-.16.09-.38.21-.6.33.04-.37.01-.76.14-1.09ZM427.41,304.41c.55-.28,1.2-.38,1.74-.69.33-.18.59-.52.86-.05.07.13-.14.46-.28.67-.15.22-.36.4-.55.59-.28.29-.51.68-.85.86-.37.2-.78-.02-1.02-.37-.24-.35-.36-.78.1-1.01ZM425.87,315.66c.55-.65,1-.4,1.37.04.27.32.28.67-.08,1.04-.53.55-.96.32-1.32-.12-.25-.31-.39-.72.03-.96ZM425.15,318.7c.18.07.25.41.37.64-.39.17-.76.15-1.14-.18-.09-.16-.21-.38-.33-.6.37.04.76.01,1.09.14ZM423.25,315.36c.08.09-.06.39-.1.58-.54.16-.74-.28-.99-.55-.08-.08.03-.52.14-.57.48-.2.7.26.95.54ZM419.23,310.59c.24-.25.48-.45.77-.44.12-.69.34-1.46.53-1.56.11-.05.23-.11.35-.16-.21-.3-.29-.66.09-.87.55-.65,1-.4,1.37.04.27.32.28.67-.08,1.04-.23.24-.44.32-.63.32-.03.09-.08.18-.13.26-.14.24-.26.49-.39.73-.12.23-.27.46-.39.69.19.28.16.55-.05.82-.02.03-.04.05-.07.08.01.02.03.03.04.05.11.15.09.4.13.6-.13.04-.33.13-.35.1-.08-.13-.18-.27-.23-.41-.24.11-.51.07-.84-.23-.38-.35-.34-.66-.13-1.06ZM419.5,314.42c-.02.07-.23.08-.36.12,0-.21-.02-.42.03-.61.02-.07.23-.08.36-.12,0,.21.02.42-.03.61ZM417.3,306.5s.06,0,.09,0c.06-.07.13-.15.22-.23.24-.06.49-.12.73-.18.15.78.3,1.56.45,2.34-.33-.19-.71-.32-.97-.57-.62-.6-.76-.9-.5-1.27,0-.03-.02-.06-.03-.09ZM416.37,290.87c.16,0,.29,0,.42-.01-.06.2-.09.41-.2.58-.04.06-.25.02-.38.02.05-.2.1-.4.15-.59ZM416.21,310.39c.2-.29.54-.49.83-.73.02.25.05.5.08.87-.26.18-.56.39-.86.6-.02-.25-.16-.57-.05-.73ZM416.13,311.02c0,.16,0,.29.01.42-.2-.06-.41-.09-.58-.2-.06-.04-.02-.25-.02-.38.2.05.4.1.59.15ZM415.76,296.97c.06.04.02.25.02.38-.2-.05-.4-.1-.59-.15,0-.16,0-.29-.01-.42.2.06.41.09.58.2ZM415.13,304.44c.23,0,.53.19.65.38.25.42-.12,3.5-.45,3.67-.16.08-.47-.14-.88-.28-.23-1.09-.38-2.26.03-3.43.06-.18.43-.35.65-.34ZM413.88,292.15c.08-.08.52.03.57.14.2.48-.26.7-.54.95-.09.08-.39-.06-.58-.1-.16-.54.28-.74.55-.99ZM413.43,293.97c-.15.47-.52.38-.86.16-.16-.19-.48-.44-.44-.56.15-.47.53-.4.85-.15.19.15.49.43.45.55ZM412.65,299.33c-.12.04-.31.15-.36.1-.15-.13-.25-.32-.37-.49.12-.04.25-.08.4-.12.11.17.22.34.33.51ZM412.69,290.73c.02-.07.23-.08.36-.12,0,.21.02.42-.03.61-.02.07-.23.08-.36.12,0-.21-.02-.42.03-.61ZM410.84,286.8c1.28-1.05,1.76.03,2.13.53.28.38.23,1.05.17,1.63,0,0,.01,0,.02,0,.07.02.08.23.12.36-.21,0-.41,0-.61,0,0-.02-.01-.04-.02-.06-.64-.05-1.72-.33-1.7-.56.07-.7-.7-1.47-.1-1.91ZM409.02,299.26c-.21.02-.74-2.38-.59-2.61.57-.91,1.42-.3,2.06-.24.63.06.85,1.85.33,2.57-.43.54-1.16.24-1.8.28ZM410.4,300.02c-.21,0-.41,0-.61,0-.05-.15-.08-.27-.12-.4.21,0,.42-.02.61.03.07.02.08.23.12.36ZM408.3,303.42c0,.13.06.34,0,.38-.17.11-.38.16-.57.23,0-.13,0-.26-.01-.42.19-.06.39-.12.58-.18ZM407.69,297.17c0-.21-.02-.42.03-.61.02-.07.23-.08.36-.12,0,.21,0,.41,0,.61-.15.05-.27.08-.4.12ZM407.56,295.73c-.38-.46.45-3.52.97-4.01.25,0,.54-.07.74.03.21.11.53.46.49.56-.43.98-.61,1.97-.5,3.04.03.27.2.95-.57.45-.28-.18-.97.12-1.12-.07ZM407.35,289.9c.15-.34.21-.85.73-.81.12,0,.36.39.31.5-.15.34-.21.82-.76.83-.1-.17-.33-.41-.28-.52ZM410.4,293.28c.02-.07.23-.08.36-.12,0,.21.02.42-.03.61-.02.07-.23.08-.36.12,0-.21-.02-.42.03-.61ZM410.16,285.75c.03.58.24,1.24.05,1.74-.38.99-1.39.52-2.31.73.02-.68-.15-1.38.09-1.89.43-.92,1.42-.45,2.18-.58ZM407.81,284.1c.18.07.25.41.37.64-.39.17-.76.15-1.14-.18-.09-.16-.21-.38-.33-.6.37.04.76.01,1.09.14ZM405.87,292.83c.24-.24.49-.17.5.09.02.22-.06.45-.09.68-.11-.06-.22-.12-.33-.17-.04-.2-.17-.51-.09-.59ZM406.1,293.94c.13-.38.3-.48.52-.15.21.32.26.71-.23,1.17-.02.01-.35.29-.4.25-.51-.45-.04-.84.1-1.27ZM406.82,297.6c.05.18.21.47.13.57-.57.73-1.16,1.43-2.28,1.26-.07-.01-.13-.02-.19-.04.12.15.23.33.35.47-.51.13-1.02.25-1.58.39-.05-.08-.28-.3-.24-.43.16-.49.41-1.03,1.05-.78,0-.07,0-.14.04-.23.24-.7,2.13-1.52,2.71-1.21ZM405.77,300.68c.06-.03.16-.1.28-.14.39-.14.49-.02.43.37-.07.5-.03,1.03-.14,1.52-.04.19-.36.4-.58.44-.76.14-.37-.48-.41-.75-.08-.5-.15-1.05.42-1.45ZM405.12,293.93c-.19.06-.39.12-.58.18,0-.13-.06-.34,0-.38.17-.11.38-.16.57-.23,0,.13,0,.26.01.42ZM404.72,289.69c-.23.44-.63.37-1.03.19-.76-.76-.67-1.61-.21-2.48.23-.44.7-.45,1-.19.79.72.71,1.61.24,2.48ZM403.33,277.94c.16-.37.41-.65.8-.35.1.08.01.48-.06.71-.13.38-.4.65-.79.35-.1-.08.03-.47.05-.71ZM400.85,279.6c.41-.25,1.26-.37,1.86.17.38.34.38.69.14,1.03-.55.75-1.09.53-1.74-.32-.09-.13-.92-.49-.26-.88ZM400.53,281.77c.13-.15.32-.25.49-.37.04.12.08.25.12.4-.17.11-.34.22-.51.33-.04-.12-.15-.31-.1-.36ZM400.82,284.24c.78-.15,1.68.16,1.78.08.57-1.11.69-1.5.93-1.77.13-.15.56-.23.71-.13.31.21.74.45.6.95-.21.76-.94,1.13-1.2,1.98-.62,2.03-1.03,2.03-3.15,1.25-.83-.31-.8-.86-.92-1.53-.23-1.32.73-.75,1.23-.84ZM401.19,288.66c2,1.15.85,3.48,1.48,5.26.34.96-1.07.88-1.81.86-.97-.03-.27-.8-.42-1.21-.23-.62.39-.93.72-1.32.73-.84.42-1.03-.54-.99-.64.03-1.49.36-1.84-.38-.26-.55-.33-1.33-.17-1.93.31-1.19,1.53-1.36,2.58-.29ZM398.88,275.96c-.06-.17-.11-.36-.06-.51.12-.37.36-.38.49-.01.06.16,0,.36-.03.55.02,0,.05,0,.07,0,.07.02.08.23.12.36-.21,0-.41,0-.61,0-.05-.15-.08-.27-.12-.4.05,0,.09,0,.14,0ZM398.87,284.98c.35.24.45.57.2,1.02-.37.68-.81.52-1.3.27-.32-.31-.45-.6-.21-1.05.37-.67.83-.56,1.3-.24ZM397.15,277.24c.39-.62.91-.3,1.33.02.11.09.05.4.06.56-.53.18-1.03.34-1.54.51.04-.37-.03-.8.15-1.08ZM396.79,289.62c.2.05.4.1.59.15,0,.16,0,.29.01.42-.2-.06-.41-.09-.58-.2-.06-.04-.02-.25-.02-.38ZM396.42,278.97c.35.24.45.57.2,1.02-.37.68-.81.52-1.3.27-.32-.31-.45-.6-.21-1.05.37-.67.83-.56,1.3-.24ZM395.45,271.75c.45.26.42.7.15,1-.74.82-1.61.65-2.3.32-.62-.39-.6-.83-.32-1.11.74-.76,1.61-.71,2.48-.21ZM393.16,284.99c.49-.61.57.15.82.27.36.18.44.52.26.9-.52.01-1.22.24-1.51,0-.49-.42.14-.81.43-1.16ZM392.61,283.27c.32.15.69.25.96.47.14.12.21.54.11.68-.44.65-.51-.22-.77-.22-.37-.25-.46-.56-.29-.93ZM394.07,275.59c.2.05.4.1.59.15,0,.16,0,.29.01.42-.2-.06-.41-.09-.58-.2-.06-.04-.02-.25-.02-.38ZM394.21,280.71c0-.16,0-.29-.01-.42.2.06.41.09.58.2.06.04.02.25.02.38-.2-.05-.4-.1-.59-.15ZM392.69,267.41c.2.05.4.1.59.15,0,.16,0,.29.01.42-.2-.06-.41-.09-.58-.2-.06-.04-.02-.25-.02-.38ZM392.63,277.11c.25-.32.57-.52.86-.12.08.11-.12.47-.25.67-.22.34-.56.52-.85.13-.08-.11.15-.44.24-.67ZM392.19,271.15c.06.04.02.25.02.38-.2-.05-.4-.1-.59-.15,0-.16,0-.29-.01-.42.2.06.41.09.58.2ZM389.94,285.41c-.16.34-.29.98-.74.8-.33-.14-.39-.31-.34-.49-.22.04-.46.04-.68,0-.79-.12-2.04.5-2.26-.26-.26-.88.03-2.17.66-3.16.28-.45,2.11-.37,2.89.08.31.18.29,1.04.19,1.86.08-.07.18-.1.32-.05.76.31.13.83-.05,1.22ZM390.03,288.02c-.22-.04-.42-.17-.62-.26,0,.09-.09.18-.27.25-.18.07-.41-.02-.62-.03,0-.14-.04-.36,0-.37.19-.06.43-.15.61-.09.18.06.27.14.28.23.08-.09.17-.17.25-.26.21.02.54-.03.6.07.16.29.03.51-.22.46ZM387.49,275.67c.15.21.46.71-.28.69-.44-.01-.88.04-1.44.06.17-.38.25-.76.48-1.01.49-.52.94-.17,1.24.25ZM386.97,273.43c.2.06.41.09.58.2.06.04.02.25.02.38-.2-.05-.4-.1-.59-.15,0-.16,0-.29-.01-.42ZM387.58,278.65c-.57.29-.84-.43-1.38-.73-.09-.28-.35-.88-.27-.93.84-.52.87.57,1.38.78.37.15.56.73.27.87ZM386.24,290.48c-.05.2-.1.4-.15.59-.16,0-.29,0-.42.01.06-.2.09-.41.2-.58.04-.06.25-.02.38-.02ZM388.37,274.59c.48-.2.7.26.95.54.08.09-.06.39-.1.58-.54.16-.74-.28-.99-.55-.08-.08.03-.52.14-.57ZM390.15,280.01c-.11-.36-.1-.82-.58-.93-.37-.19-.8-.31-1.05-.59-.3-.32-.17-.62.32-.74.63-.16,1.41-.6,1.81.07.36.61.85,1.42.27,2.2-.14.19-.51.8-.77,0ZM390.87,276.57c-.55-.46-.35-.91.09-1.29.17-.15.47-.15.71-.21-.03.59-.07,1.18-.1,1.76-.23-.09-.46-.18-.7-.27ZM392.04,288.19c.06.04.02.25.02.38-.2-.05-.4-.1-.59-.15,0-.16,0-.29-.01-.42.2.06.41.09.58.2ZM391.26,268.9c.79.78-.04,1.14-.37,1.62-.35.34-.67.66-1.1.4.05.12.1.26.16.37-.39.17-.76.15-1.14-.18-.09-.16-.21-.38-.33-.6.32.03.66.02.96.11-.59-.7.13-1.07.5-1.5.36-.42.75-.77,1.32-.21ZM387.27,265.92c.3-.27.72-.22,1.02.16.17.21.39.38.58.56.29.28.6.55.87.85.07.08.07.35.01.38-.18.11-.4.16-.61.21-1.11.29-1.76-.43-2.3-1.18-.11-.15.18-.75.43-.98ZM386.79,271.02c.02.25.05.5.07.76-.27.47-.54.95-1.19.52-.2-.13-.34-.36-.5-.54.54-.25,1.08-.49,1.62-.74ZM383.96,285.29c.14-.24,1.41-.23,1.49-.04.27.64.29,1.42-.2,2.04-.52.66-1.3.05-2,.49.24-.96.32-1.81.71-2.49ZM385.37,290.46c-.51.13-1.02.26-1.58.4-.05-.08-.28-.3-.24-.43.17-.49.42-1.05,1.08-.77.3.13.49.53.73.81ZM381.65,291.87c.87.56,1.27,1.77,2.66,1.65.47-.04.28.57-.03.81-.83.66-1.83.22-2.75.38-.13.02-.39.02-.39.01-.07-.94-.12-1.88-.18-2.92.25.02.53-.04.7.07ZM380.62,280.93c.34.15.85.21.81.73,0,.12-.39.36-.5.31-.34-.15-.82-.21-.83-.76.17-.1.41-.33.52-.28ZM379.9,295.34c.2.05.4.1.59.15,0,.16,0,.29.01.42-.2-.06-.41-.09-.58-.2-.06-.04-.02-.25-.02-.38ZM379.17,284.95c.26.21.33.64.49.98-.52-.01-1.05-.03-1.63-.04-.02-.09-.19-.37-.11-.48.29-.43.69-.9,1.25-.46ZM378.25,297.83c.34-.05.84.62.41,1.24-.25.35-.79.65-.98.4-.69-.94-1.69-1.11-2.68-1.31-.12-.26-.23-.48-.33-.71.2-.07.39-.15.59-.22,1.09-.38,1.87.77,2.98.61ZM374.92,284.28c.05-.25.03-.55.17-.72.5-.6.99-1.27,1.95-1.07.25.05.51.01.77.02-.05.24-.03.55-.17.72-.5.6-.99,1.27-1.95,1.07-.25-.05-.51-.01-.77-.01ZM377.56,295.4c.13,0,.34-.06.38,0,.11.17.15.38.23.57-.13,0-.26,0-.42.01-.06-.19-.12-.39-.18-.58ZM378.38,290.93c-.13.06-.48.37-.78.32-.42-.06-.09-1.8.38-2.35.26-.3.29-.24.59-.03.63.45.67,1.09-.19,2.05ZM377.99,288.37c.02-.21-.03-.54.07-.6.29-.16.51-.03.46.22-.04.22-.17.42-.27.63-.09-.08-.18-.17-.27-.25ZM376.56,277.28c.57-.45,1.19.46,1.55.95.63.84-.18.64-.64.75-.35.08-.66.36-.75.41-.57.61-.89,1.1-1.34,1.36-.44.25-.52-.16-.6-.58-.3-1.52.9-2.21,1.77-2.88ZM374.69,293.88c.36.26.37.99.57,1.65-.53.13-1.19.51-1.55.32-.49-.26-.79-1.09-.46-1.6.22-.33,1.17-.57,1.44-.37ZM372.97,288.17c.28.29.54.67.11.85-.45.2-1.03.11-1.58.14.07-.33.04-.63.18-.81.34-.44.75-.73,1.29-.18ZM372.09,287.18c.21,0,.42-.02.61.03.07.02.08.23.12.36-.21,0-.41,0-.61,0-.05-.15-.08-.27-.12-.4ZM371.85,292.98c.25-.37.56-.46.93-.29-.15.32-.25.69-.47.96-.12.14-.54.21-.68.11-.65-.44.22-.51.22-.77ZM372.12,301.12c.46-.55.91-.35,1.29.09.15.17.15.47.21.71-.59-.03-1.18-.07-1.76-.1.09-.23.18-.46.27-.7ZM370.63,284.99c.88-.02,1.87.31,2.59-.61.18-.23.51-.03.55.5-.02.23.09,1.09-.11,1.17-.94.36-1.95.53-2.95.72-.77.15-.44-.52-.41-.76.04-.33-.85-.99.33-1.02ZM369.87,292.79c.57-.37.82.19,1.2.44.33.22.38.46,0,.53-.32.06-.68-.13-.96-.19-.11-.35-.29-.74-.24-.78ZM369.66,295.67c.8.46-.01.89-.31,1.1-1.23.84-1.14,2.05-1.07,3.28.02.29-.16.4-.52.3-.12-.03-.21-.16-.48-.37-.46-.41-.23-1.16-.18-1.78.06-.78,1.15-1.01,1.13-2.02-.03-1.14,1.22-.63,1.44-.5ZM370.02,299.12c-.05.2-.1.4-.15.59-.16,0-.29,0-.42.01.06-.2.09-.41.2-.58.04-.06.25-.02.38-.02ZM367,289.66c.37-.67.83-.56,1.3-.24.35.24.45.57.2,1.02-.37.68-.81.52-1.3.27-.32-.31-.45-.6-.21-1.05ZM367.62,307.77c.18.26.39.56.6.86-.25.02-.57.16-.74.05-.29-.2-.49-.54-.73-.83.25-.02.5-.05.87-.08ZM366.39,295.1c-.2-.06-.41-.09-.58-.2-.06-.04-.02-.25-.02-.38.2.06.41.09.58.2.06.04.02.25.02.38ZM365.78,289.42c.23.27.33.66.48.99-.25-.04-.5-.09-.86-.15-.1-.29-.22-.64-.35-.99.25.04.6,0,.72.15ZM364.71,307.47s-.5-.11-.64-.27c-.51-.63-.44-1.33-.18-2.06.26.11.56.14.7.3.53.63.47,1.33.12,2.03ZM363.07,299.18c.41-.32.75.07,1.06.26.1.07.04.4.06.59-.47.3-.78-.07-1.1-.26-.1-.06-.12-.51-.02-.59ZM362.04,297.29c.5.63.49,1.33.1,2.01-.01.03-.47-.13-.64-.28-.7-.62-.06-1.35-.55-2.22.66.28.96.32,1.09.49ZM359.93,306.7c.35-.37.7-.38,1.03-.13.45.35.71.75.18,1.31-.35.37-.66.35-1.08.11-.37-.36-.66-.73-.13-1.29ZM358.6,314.32c-.13.38-.4.65-.79.35-.1-.08.03-.47.05-.71.16-.37.41-.65.8-.35.1.08.01.48-.06.71ZM357.33,307.51c-.16-.54.28-.74.55-.99.08-.08.52.03.57.14.2.48-.26.7-.54.95-.09.08-.39-.06-.58-.1ZM357.46,297.29c.17-.15.47-.15.71-.21.17.78.42,1.56.43,2.34,0,.15-.59-.34-.74-.42-.76-.57-1.15-1.07-.41-1.7ZM352.87,308.41c.27-.06.88.32.91.55.12.92-.62,1.36-1.28,1.76-.36.22-.53.03-.41-.38.05-.74-.36-1.7.77-1.93ZM353.08,325.4c-.05.2-.1.4-.15.59-.16,0-.29,0-.42.01.06-.2.09-.41.2-.58.04-.06.25-.02.38-.02ZM350.38,305.96c.28-.23.67-.33,1.01-.48.13.63-.33.96-.91,1.52-.1.04-.45.16-.8.28-.13-.64.31-.99.71-1.32ZM349.61,320.2c.23.09.49.13.68.27.61.44.29.88,0,1.28-.3.08-.54.15-.78.21.03-.59.07-1.18.1-1.76ZM346.75,313.4c.32-.27.67-.28,1.04.08.56.53.28.92-.09,1.32-.39.22-.7.28-1.06-.08-.55-.53-.32-.95.12-1.32ZM345.87,310.91c.04-.06.25-.02.38-.02-.06.2-.09.41-.2.58-.04.06-.25.02-.38.02.06-.2.09-.41.2-.58ZM344.32,329.17c.11-.62-.18-1.35.6-1.76.17.04.55.12.55.14-.08.63.38,1.35-.24,1.88-.38.33-.66,1.15-1.19.86-.77-.42.2-.73.27-1.12ZM340.7,322.19c.29-.43.69-.9,1.25-.46.26.21.33.64.49.98-.52-.01-1.05-.03-1.63-.04-.02-.09-.19-.37-.11-.48ZM338.51,317.25c.13-.05.67-.38.8-.26.47.43,1.28.69,1.23,1.47-.03.48-.62,1.2-.48,1.35.72.75.87,1.42-.19,1.79-.75.26-1.22-.6-1.53-1.09-.87-1.35-.79-2.33.17-3.26ZM335.63,338.64c.15.12.13.47.19.71-.42.06-.77-.06-1.05-.48-.04-.18-.1-.42-.15-.67.34.14.73.22,1.02.43ZM333.85,323.57c.48-.2.7.26.95.54.08.09-.06.39-.1.58-.54.16-.74-.28-.99-.55-.08-.08.03-.52.14-.57ZM333.05,345.93c.08-.08.52.03.57.14.2.48-.26.7-.54.95-.09.08-.39-.06-.58-.1-.16-.54.28-.74.55-.99ZM328.58,347.01c.35-.46.8-.7,1.27-.14.15.18.21.44.31.67-.58.09-1.16.19-1.78.29.08-.34.06-.63.2-.81ZM325.28,332.59c.04-.06.25-.02.38-.02-.05.2-.1.4-.15.59-.16,0-.29,0-.42.01.06-.2.09-.41.2-.58ZM323.03,344.38c.2.06.41.09.58.2.06.04.02.25.02.38-.2-.06-.41-.09-.58-.2-.06-.04-.02-.25-.02-.38ZM322.83,336.96c.06.04.02.25.02.38-.2-.05-.4-.1-.59-.15,0-.16,0-.29-.01-.42.2.06.41.09.58.2ZM251.43,415.91c.06-.1.51-.12.59-.02.32.41-.07.75-.26,1.06-.06.1-.4.04-.59.06-.3-.47.07-.78.26-1.1ZM249.26,412.39c.3.21.49.56.74.84-.57.29-1.01-.06-1.71-.47-.06-.09-.27-.39-.49-.7.58-.3,1.04.03,1.46.33ZM245.17,414.14c.7.27.14.83-.07,1.2-.2.36-.3,1.18-.95.68-.35-.27-.37-.95-.54-1.45.57-.18,1.17-.58,1.56-.43ZM238.72,441.87c.02-.07.23-.08.36-.12,0,.21.02.42-.03.61-.02.07-.23.08-.36.12,0-.21-.02-.42.03-.61ZM229.35,432.05c.07.02.08.23.12.36-.21,0-.42.02-.61-.03-.07-.02-.08-.23-.12-.36.21,0,.42-.02.61.03ZM226.22,435.86c0-.21-.02-.42.03-.61.02-.07.23-.08.36-.12,0,.21,0,.41,0,.61-.15.05-.27.08-.4.12ZM234.12,459.62c-.07-.02-.08-.23-.12-.36.21,0,.42-.02.61.03.07.02.08.23.12.36-.21,0-.42.02-.61-.03ZM239.55,465.37c-.05-.15-.08-.27-.12-.4.21,0,.42-.02.61.03.07.02.08.23.12.36-.21,0-.41,0-.61,0ZM243.31,466.55c-.54.96-1.1.25-1.77.09-.18-.25-.4-.55-.63-.84.73-.18,1.42-.81,2.21-.26.34.24.45.57.19,1.02ZM245.85,465.9c-.05-.15-.08-.27-.12-.4.21,0,.42-.02.61.03.07.02.08.23.12.36-.21,0-.41,0-.61,0ZM251.39,468.99c-.19.16-.44.48-.56.44-.47-.15-.4-.53-.15-.85.15-.19.43-.49.55-.45.47.15.38.52.16.86ZM256.43,468.36c-.58,1.04-.75,1.08-1.62.56-.7-.4-1.21-.67-.78-1.34.43-.68,1.86-1.05,2.44-.61.59.45.23.92-.03,1.38ZM319.95,456.44h-70.2c.1.32.09.74,0,1.04-.06.22-.77.42-1.13.35-1.01-.2-.06-.74-.13-1.11-.02-.11-.04-.2-.07-.28h-.69c-.04.06-.09.12-.13.18-.14.2-.38.33-.58.5-.08-.06-.21-.11-.23-.18-.04-.18-.1-.34-.18-.5h-2.61c-.13.22-.26.43-.38.65-.2.36-.52.84-.84.64-.35-.21-.15-.83.15-1.07.08-.07.14-.14.18-.22h-14.57l14.21-14.76c-.05-.38,0-.73.16-.95.3-.4.61-.33.93-.19l86.54-89.89s-.02,0-.02,0c-.06-.19-.15-.43-.09-.61.06-.18.14-.27.23-.28-.09-.08-.17-.17-.26-.25.02-.21-.03-.54.07-.6.29-.16.51-.03.46.22-.04.22-.17.42-.26.62.09,0,.18.09.25.27.02.07.02.14.02.22l34.79-36.14c-.02-.09-.03-.2-.03-.34.12-.18.27-.53.52-.78.26-.25.49-.18.49.1l2.95-3.06s-.08-.03-.12-.05c-.57-.49-.26-.93.16-1.28.17-.14.48-.13.72-.18-.03.27-.06.55-.09.82l10.43-10.83c.04-.15.18-.37.24-.53.18-.22.38-.38.59-.33l8.87-9.22.89.92c.24.04.46.25.67.37.07.05.06.22.06.38l2,2.08c.05-.16.07-.34.04-.53-.06-.37.58-.27.8.06.38.57.53,1.16.37,1.73l2.43,2.52c.16-.13.38-.17.68-.03.3.14.48.54.72.82-.16.05-.33.1-.5.15l11.24,11.68c.08-.13.19-.24.32-.36.32-.27.67-.28,1.04.08.56.53.28.92-.09,1.32-.06.04-.12.07-.18.09l9.98,10.37c.18.01.39.11.6.3.25.23.32.44.3.63l16.47,17.11-4.54,4.54c.35.03.63.17.77.44.36.67.52,1.52-.05,2.2-.57.67-2.17.35-2.91-.44l-111.02,111.02c-.17.17-.29.37-.45.55ZM430.08,357.06c.44-.39.77-1.27,1.56-.55.64.59.61,1.48.18,2.03-.19.24-1.25.37-2.17-.46-.22-.19,0-.63.43-1.02ZM429.53,354.49c.18-.1.41-.31.55-.27.5.17,1.05.43.75,1.09-.14.3-.54.48-.82.72-.16-.51-.31-1.02-.47-1.55ZM421.11,367.48c-.17.11-.38.16-.57.23,0-.13,0-.26-.01-.42.19-.06.39-.12.58-.18,0,.13.06.34,0,.38ZM420.01,370.9c-.81.65-1.58.56-2.36-.16-.21-.2-.76-.04-1.11-.04-.46-.39-.03.1-.02-.44,0-.21.26-.5.48-.61.39-.21.88-.13,1.03.28.57,1.49,1.51-1.82,1.97.17.06.26.14.7,0,.8ZM405.21,388.07c-.2-.05-.4-.1-.59-.15,0-.16,0-.29-.01-.42.2.06.41.09.58.2.06.04.02.25.02.38ZM433.99,456.44h-88.38l105.18-105.18,13.53,14.06c1.22.22,2.39.53,2.54.74.09.13-.06.59-.22.68-.19.11-.43.2-.69.26l11.62,12.07s-.03-.09-.04-.14c.21,0,.42-.02.61.03.07.02.08.23.12.36-.15,0-.3,0-.44,0l4.41,4.58c.16.11.32.24.39.4l10.41,10.81-59.03,61.31ZM617.4,457.04c.16.13.31.26.46.38-.06.14-.11.26-.16.38-.15-.14-.33-.25-.44-.42-.04-.06.09-.22.14-.34ZM579.37,467.43c-.16-.18-.32-.36-.49-.55-.3-.67.15-.93.67-1.08.21-.06.47.09.71.14-.3.5-.6.99-.9,1.49ZM592.61,469.23c-.41.25-.62-.05-.74-.43,0-.24-.08-.63.03-.7.41-.25.65.04.73.43.05.23.09.63-.02.7ZM615.55,468.57c.03-.66.82-.51,1.16-.77.42-.21.91-.25.89.2-.03.66-.8.54-1.23.79-.34.2-.84.22-.82-.23ZM619.19,472.05c-.23.03-.49-.04-.72-.12-.37-.13-.95-.24-1.03-.48-.1-.33.32-.65.65-.69.34-.13.58-.26.83-.32.71-.17.94.36,1,.86.05.4-.3.7-.72.76ZM625.78,469.48c-.48-.21-.95-.42-1.45-.63.05-.2.03-.51.15-.58.44-.26.99-.51,1.29.14.14.3.02.71.01,1.07ZM633.83,459.32c-.61.34-1.96-.14-2.32-.85-.35-.69.14-.95.66-1.11.56-.18,1.15-.76,1.63.21.35.7.45,1.51.03,1.75ZM638.32,468.05c-.15-.14-.33-.25-.44-.42-.04-.06.09-.22.14-.34.16.13.31.26.46.38-.06.14-.11.26-.16.38ZM641.77,464.07c-.5.18-1.01.36-1.22-.37-.06-.22-.02-.48-.03-.72l1.67.48c-.14.2-.28.4-.43.61ZM643.94,462.34c-.16-.13-.31-.26-.46-.38.06-.14.11-.26.16-.38.15.14.33.25.44.42.04.06-.09.22-.14.34ZM648.2,471.1c-.19-.16-.39-.32-.58-.49-.17-1,1.18-3.29,1.97-3.27.16,0,.4.35.45.57.38,1.62-1.5,1.96-1.84,3.19ZM651.14,463.01c-.47.23-.94.46-1.33-.16-.44-.7-.32-2.59.21-2.87.65.78,1.8-.27,2.39.62.46.69-.2,1.87-1.27,2.41ZM653.6,460.28c-.2-.14-.39-.29-.6-.44-.18-.5-.32-1.01.4-1.2.22-.06.66-.08.69,0,.25.65-.33,1.09-.49,1.64ZM657.42,474.51c-.31.32-1.95.04-2.17-.33-.11-.45.14-.66.52-.75.56-.12,1.15-.84,1.69.02.22.35.24.76-.05,1.07ZM657.41,466.64c-.21.08-.61.11-.7-.01-.46-.61-.93-1.25-.55-2.09.16-.35.33-.69.49-1.04.24.27.51.53.72.83.15.21.2.49.4,1,.02.1.17.47.15.84,0,.17-.3.4-.52.48ZM660.65,471.51c-.16-.13-.31-.26-.46-.38.06-.14.11-.26.16-.38.15.14.33.25.44.42.04.06-.09.22-.14.34ZM664.91,464.58c-.94.82-3.89.94-5.25.22-.12-.06-.25-.11-.37-.16.13-.21.21-.49.4-.6.54-.32,4.22-.48,4.87-.23.2.08.37.25.51.41.04.05-.06.27-.15.35ZM667.65,468.74c-.39.1-.77,0-.85-.42-.39-1.05.41-1.15.97-1.34.33-.11.72-.03,1.09-.04-.33.66-.3,1.57-1.21,1.81ZM681.51,448.62c.06-.04.22.09.34.14-.13.16-.26.31-.38.46-.14-.06-.26-.11-.37-.16.14-.15.25-.33.41-.44ZM681.14,454.72c.15.14.33.25.44.42.04.06-.09.22-.14.34-.16-.13-.31-.26-.46-.38.06-.14.11-.26.16-.38ZM673.92,449.69c-.16-.13-.31-.26-.46-.38.06-.14.11-.26.16-.38.15.14.33.25.44.42.04.06-.09.22-.14.34ZM678.09,460.07c-.53.49-.61-.43-.7-.56-.53-.9-.53-1.48.36-1.7.22-.05.48.09.72.14-.6.65.06,1.7-.38,2.12ZM681.58,464.95c-.5-.22-1.21-.31-1.38-.67-.15-.3.18-1.1.53-1.33.71-.47.68.38.85.73.19.4.54.85,0,1.27ZM685.11,471.51c-.12-.05-.23-.1-.38-.16.03-.19.05-.39.08-.59.12.05.32.09.33.16.03.19-.02.4-.04.6ZM685.76,464.27c-.16-.13-.31-.26-.46-.38.06-.14.11-.26.16-.38.15.14.33.25.44.42.04.06-.09.22-.14.34ZM692.35,455.57c-.41.26-.75.05-.94-.31-.26-.49-.32-.96.38-1.24.47-.19.78-.05.97.31.26.5.32,1-.41,1.24ZM696.46,467.05c-.15-.14-.33-.25-.44-.42-.04-.06.09-.22.14-.34.15.14.33.25.44.42.04.06-.09.22-.14.34ZM700.11,463c-.15-.14-.33-.25-.44-.42-.04-.06.09-.22.14-.34.15.14.33.25.44.42.04.06-.09.22-.14.34ZM710.31,471.25c.11-.03.45.24.45.36-.02.51-.53.51-.87.62-.11.04-.32-.22-.47-.33.08-.54.55-.54.9-.65Z"/><path class="cls-1" d="M556.51,590.6l10.29-18.34h29.31l1.68,18.23c.11.54.56.97,1.12.97h14.54c.56,0,1.01-.43.89-.97l-8.28-73.58c-.11-.54-.56-.97-1.12-.97h-8.83c-.02.06-.05.11-.07.17-.06-.06-.13-.11-.2-.17h-7.54c.13.09.26.19.44.31-.03.3-.07.66-.1,1.02-.2-.14-.53-.25-.58-.43-.08-.28-.04-.59-.03-.9h-4c-.56,0-1.23.32-1.57.87l-37.45,62.55c-.11-.05-.24-.08-.38-.08h-37.47l4.92-21.58h33.56c.56,0,1.12-.43,1.23-.97l2.46-10.25c.11-.54-.22-.97-.78-.97h-33.56l4.47-17.37h36.58c.56,0,1.12-.43,1.23-.97l2.46-10.25c.11-.54-.22-.97-.78-.97h-52.8c-.56,0-1.12.43-1.23.97l-8.39,36.79-9.28,36.79c-.11.54.22.97.78.97h67.03c.56,0,1.23-.32,1.45-.86ZM604.93,518.73c.12.05.32.09.33.16.03.19-.02.4-.04.6-.12-.05-.23-.1-.38-.16.03-.19.05-.39.08-.59ZM604.57,533.01c.06-.04.22.09.34.14-.13.16-.26.31-.38.46-.14-.06-.26-.11-.38-.16.14-.15.25-.33.42-.44ZM600.84,543.92c-.15-.14-.33-.25-.44-.42-.04-.06.09-.22.14-.34.16.13.31.26.46.38-.06.14-.11.26-.16.38ZM599.22,521.86c.44-.26.99-.51,1.29.14.14.3.02.71.01,1.07-.48-.21-.95-.42-1.45-.63.05-.2.03-.51.15-.58ZM599.09,535c.15.14.33.25.44.42.04.06-.09.22-.14.34-.16-.13-.31-.26-.46-.38.06-.14.11-.26.16-.38ZM599.74,546.13c.19-.08.47.08.71.13-.26.25-.49.56-.8.72-.17.09-.47-.08-.84-.16.35-.28.61-.56.93-.7ZM593.05,517.46c.09.02.41-.02.47.1.26.44.52.98-.11,1.3-.29.14-.71.03-1.07.03.23-.46.46-.92.71-1.43ZM585.3,517.7c.15.14.33.25.44.42.04.06-.09.22-.14.34-.15-.14-.33-.25-.44-.42-.04-.06.09-.22.14-.34ZM591.97,526.94l.55,5.85c.2-.48.45-.9,1.2-.72.26.06.65.65.58.86-.25.79-.97.93-1.67,1.01l2.36,25.26h-20.92l17.9-32.26Z"/><path class="cls-1" d="M725.26,590.41c-.1-.25-.2-.5-.29-.75-.1-.25-.17-.51-.3-.74-.61-1.05-.57-2.32.35-2.82,1.18-.64,2.03.2,2.67,1.43.65,1.25.89,2.29.14,3.26-.18.23-.38.4-.58.52,2.06-.61,3.97-1.35,5.71-2.22.14-.17.37-.26.61-.32.3-.16.59-.31.88-.47.4-.46.49-1.14.84-1.63.62-.87,1.74-1.09,2.58-.6,1.71-1.3,3.19-2.75,4.45-4.3-.36-.03-.53-.38-.64-.76-.06-.21.08-.47.14-.71.38.23.75.45,1.13.68,3.07-4.12,4.61-8.91,4.61-13.78,0-7.43-3.91-11.97-9.37-15.07.15.31.13.62-.29.71-.13.03-.33-.32-.5-.49-.13-.25-.18-.51-.03-.67-3.79-1.99-8.23-3.36-12.6-4.54.28.21.33.69.5,1.02.26.52.29,1-.19,1.19-1.2.41-1.22-.45-1.47-.98-.23-.51-.34-.99.39-1.25.15-.05.28-.07.39-.08-3.78-1.01-7.49-1.9-10.67-2.94-.08.4-.43.74-.52,1.15-.2-.14-.48-.24-.58-.44-.2-.4-.3-.81.05-1.07-4.89-1.73-8.28-3.95-8.28-7.82,0-5.5,6.38-9.17,14.77-9.17,8.84,0,14.43,4.32,14.88,10.57,0,.54.45.97,1.01.97h15.88c.56,0,1.01-.43,1.01-.97-.79-12.97-9.32-19.74-21.24-22.05-.09.16-.23.3-.45.38-.09.03-.36-.31-.46-.51,0-.01,0-.02-.01-.03-2.99-.51-6.17-.76-9.5-.76-8.53,0-15.39,1.68-20.63,4.45-.07.5-.69.54-1.08.77-.18.06-.36.13-.53.15-3.39,2.07-6.01,4.64-7.88,7.52.37-.09.64.03.81.35.26.5.32,1-.41,1.24-.41.26-.75.05-.94-.31-.04-.08-.07-.15-.1-.23-1.94,3.39-2.91,7.14-2.91,10.99,0,1.23.11,2.38.3,3.45.88.34,1.74.72,2.58,1.14.14.07.23.51.15.72-.09.25-.01.37.04.42.05.03.03.03,0,0-.03-.02-.08-.04-.17-.07-.8-.28-1.57-.62-2.33-.96.98,3.74,3.15,6.52,6.01,8.67.67-.74,1.37-1.45,2.06-2.18.27-.29.14-1.22.92-.67.27.19.4.71.44,1.1.09.86-.68,2.28-1.52,3.04,1.09.66,2.26,1.26,3.48,1.8.21.04.41.13.57.25,12.64,5.39,30.29,5.35,30.29,14.91,0,3.99-3.02,10.03-14.99,10.03-5.02,0-8.92-1.01-11.78-2.84-.12.33-.54.35-.83.44-.11.04-.32-.22-.47-.33.06-.4.34-.51.62-.58-3.32-2.42-5.07-6.07-5.43-10.61,0-.54-.45-.97-1.01-.97h-2.72c-.06.12-.16.24-.23.35-.12-.05-.33-.11-.33-.15,0-.07.02-.14.03-.21h-4.89c-.31.3-.56.66-.84,1.01-.14.18-.72.1-1.05-.01-.16-.05-.31-.46-.28-.7.01-.1.03-.2.06-.3h-5.52c-.56,0-1.01.43-1.12.97-.42,8.3,2.99,14.62,8.76,18.98.23-.16.52-.24.8-.31.34-.09.73-.01,1.09-.01-.13.53-.55.68-1.14.87,6.36,4.46,15.33,6.69,25.16,6.69,4.98,0,9.42-.61,13.32-1.69-.54.02-1.06-.34-1.38-1.08ZM694.36,548.93c-.18-.13-.3-.33-.45-.5-1,.29-2,.59-3.01.87,0,0-.05-.17-.08-.28.36-.51.28-1.47,1.09-1.51.61-.03,1.24.33,1.85.55.08.03.1.24.15.36.11-.04.23-.09.34-.13.17.1.49.2.5.31.02.33-.19.47-.39.32ZM694.25,540.42c-.22.06-.48,0-1.61-.02.59-.62.98-.93,1.26-1.33.43-.61.62-.07.75.16.27.49.29,1-.4,1.19ZM694.77,531.33c-.19.03-.4-.02-.6-.04.05-.12.1-.23.16-.38.19.03.39.05.59.08-.05.12-.09.32-.16.33ZM716.4,525.63c.35.69-.16.89-.65,1.12-.79.37-1.52.62-1.76-.63-.21-.45-.5-.95.1-1.34.59-.38,1.95.13,2.32.84ZM713.31,514.79c.65-.25,1.09.33,1.64.49-.14.2-.29.39-.44.6-.5.18-1.01.32-1.2-.4-.06-.22-.08-.66,0-.69ZM706.46,519.15c.38-.11,1.26.25,1.34.56.24.89-.75.71-1.2,1.01-.34.23-.65.18-.82-.26.22-.48.36-1.22.68-1.32ZM704.62,523.27c.13-.14.24-.18.32-.15-.04-.11-.09-.22-.13-.33.1-.18.2-.49.31-.5.33-.02.47.19.32.39-.13.17-.32.3-.49.44.08.04.13.15.11.34-.01.18-.19.36-.28.53-.12-.05-.33-.11-.33-.15.02-.2.04-.44.17-.58ZM699.38,521.02c.23.27.51.51.65.82.07.16-.04.56-.19.65-.66.39-.36-.41-.59-.51-.22-.38-.18-.69.13-.95ZM699.18,522.78c.26-.28.47-.18.44.19-.01.18-.19.36-.28.53-.12-.05-.33-.11-.33-.15.02-.2.04-.44.17-.58ZM697.16,548.9c-.16-.13-.31-.26-.46-.38.06-.14.11-.26.16-.38.15.14.33.25.44.42.04.06-.09.22-.14.34ZM700.23,538.87c-1.71.18-.02,2.01-1.26,2.35-.45.12-.8.09-.98-.26-.24-.45-.57-1.33-.46-1.4,1.06-.7,1.33-1.85,1.82-2.87.27.24.54.48.67.59.25.68.62,1.55.21,1.6ZM702.27,527.49c-.24-.51.18-.92.71-.93.75-.01,1.58.17,1.93.98.42.99-.52.98-1.04,1.24-1.23.61-1.2-.5-1.6-1.3ZM702.88,537.32c-.15-.23.29-1.24.58-1.29.56-.1.67.62.95,1.28-.01.16-.04.52-.07.87-.51-.28-1.17-.45-1.46-.87ZM704.38,547.65c-.06.04-.22-.09-.34-.14.13-.15.25-.33.42-.44.06-.04.22.09.34.14-.14.15-.25.33-.42.44ZM705.91,548.96c-.15-.14-.33-.25-.44-.42-.04-.06.09-.22.14-.34.16.13.31.26.46.38-.06.14-.11.26-.16.38ZM709.45,550.2c-.72.31-.92-.17-1.14-.68-.13-.56-.74-1.19.26-1.61.72-.3.95.16,1.12.67.19.56.76,1.19-.24,1.62ZM711.58,557.04c-.13.03-.33-.32-.5-.49-.18-.36-.22-.72.25-.82.13-.03.37.3.49.5.2.34.23.71-.24.81ZM716.47,549.17c-.2-.14-.48-.24-.58-.44-.25-.48-.35-.99.34-1.22.26,0,.67-.08.71,0,.28.65-.34,1.09-.47,1.65ZM737.07,583.87c-.33.15-.67.48-1.1.13.03-.19.01-.51.12-.57.33-.16.7-.49,1.06-.14.09.08.02.52-.08.57ZM746.9,566.23c.13-.03.37.3.49.5.2.34.23.71-.24.81-.13.03-.33-.32-.5-.49-.18-.36-.22-.72.25-.82ZM743.5,569.39c.51-.46,1.14.24,1.68.48,1.62.72,1.58.87,0,2.13-.48.38-.82.95-1.29,1.35-.3.25-.69.26-.81-.3.5-.61.28-1.23-.03-1.85-.37-.74.06-1.45.46-1.81ZM740.92,564.04c.52-.22.96-.29,1.23.4.28.71-.16,1.08-.66,1.08-.6,0-1.19-.34-1.77-.53.16-.7.74-.74,1.2-.94ZM739.63,578.07c-.02.73,1.41,1.59-.14,2.25-1.58.67-2.36.13-3.2-1.77-.65-1.48.51-1.41,1.24-1.84,1.62-.95,1.69.43,2.1,1.36ZM736.09,555.3c1.07.23,1.19,1.55,2.1,1.45-.19.48-.47,1.39-.54,1.38-.85-.2-1.97-.29-2.44-.88-.76-.93,1.44-.53.88-1.95ZM732.73,583.86c.16.13.31.26.46.38-.06.14-.11.26-.16.38-.15-.14-.33-.25-.44-.42-.04-.06.09-.22.14-.34ZM731.38,586.42c.03.19-.02.4-.04.6-.12-.05-.23-.1-.37-.16.03-.19.05-.39.08-.59.12.05.32.09.33.16ZM730.73,565.42c.12.05.23.1.37.16-.03.19-.05.39-.08.59-.12-.05-.32-.09-.33-.16-.03-.19.02-.4.04-.6ZM729.33,588.68c.18.1.49.2.5.31.02.33-.19.47-.39.32-.18-.13-.3-.33-.45-.5.11-.04.23-.09.34-.13ZM685.29,581.36c-.06.04-.22-.09-.34-.14.14-.15.25-.33.42-.44.06-.04.22.09.34.14-.14.15-.25.33-.42.44ZM686.12,574.2c-.16-.13-.31-.26-.46-.38.06-.14.11-.26.16-.38.15.14.33.25.44.42.04.06-.09.22-.14.34ZM686.23,569.68c-.3.99-.94,1.51-1.89,1.78-.37.08-.79.3-1.1.19-.29-.11-.64-.81-.63-.83.81-.65,1.03-1.44,1.13-2.49.07-.69,1.03-.36,1.64-.1.67.28,1.08.6.83,1.45ZM689.06,578.3c.23-.05.63-.09.7.02.25.41-.05.62-.43.74-.24,0-.63.08-.7-.03-.25-.41.04-.65.43-.73ZM689.5,581.61c-.34.2-.84.22-.82-.23.03-.66.82-.51,1.16-.77.42-.21.91-.25.89.2-.03.66-.8.54-1.23.79ZM691.08,578.24c-.14-.06-.26-.11-.38-.16.14-.15.25-.33.42-.44.06-.04.22.09.34.14-.13.16-.26.31-.38.46ZM711.53,592.18c-.15-.14-.33-.25-.44-.42-.04-.06.09-.22.14-.34.16.13.31.26.46.38-.06.14-.11.26-.16.38ZM714.54,589.09c-.06.04-.22-.09-.34-.14.14-.15.25-.33.42-.44.06-.04.22.09.34.14-.14.15-.25.33-.42.44Z"/><path class="cls-1" d="M462.51,565.24c21.03,0,34.23-10.68,34.23-28.81,0-13.49-10.07-20.5-26.73-20.5h-27.3c-.56,0-1.12.43-1.23.97l-8.39,36.79-9.28,36.79c-.11.54.22.97.78.97h15.32c.56,0,1.12-.43,1.23-.97l5.7-25.25h15.66ZM456.02,527.91h12.86c7.49,0,11.07,3.34,11.07,10.36,0,10.57-7.27,15-14.43,15h-15.88l6.38-25.36Z"/><path class="cls-1" d="M172.48,588.75c-.52-.32-1.39-.43-.67-1.92.08-.19.59-.04,1.07.27.29.18.7.29.91.54l.76-3.47s-.07,0-.09-.03c-.29-.2-.49-.54-.73-.83.25-.02.5-.05.87-.08.04.05.08.12.12.18l1.17-5.36c-.06-.09-.11-.17-.17-.26.08-.02.17-.07.25-.09l5.18-23.67c-.19.06-.38.11-.56.19-.37.17-.51.14-.5-.28,0-.99.76-1.02,1.39-1.23l1.86-7.09c-.3-.12-.61-.25-.22-.74.05-.06.21-.04.41.01l2.4-9.14s-.05-.03-.08-.05c-.16-.19-.48-.44-.44-.56.14-.42.45-.41.74-.22l1.78-6.78h.84c-.21-.57-.22-1.16.03-1.47.46-.56.91-.13,1.4.05.95.35.92.85.64,1.43h2.76c.21-.07.43-.13.64-.18.04-.01.09.06.13.18h2.5c-.07-.11-.14-.22-.22-.33.12-.04.31-.15.36-.1.14.12.23.28.33.44h12.18c.56,0,1.12-.43,1.23-.97l.05-.21.19,63.54c0,.54.45.97,1.01.97h19.13c.56,0,1.12-.32,1.45-.86l23.49-51.9.11,51.79c0,.54.45.97,1.01.97h18.57c.56,0,1.23-.32,1.45-.86l36.02-73.8c.22-.43-.11-.87-.56-.87h-15.32c-.56,0-1.12.32-1.45.87l-27.18,61.93,2.57-61.82c0-.54-.45-.97-1.01-.97h-17.79c-.56,0-1.12.32-1.34.87l-26.29,60.64,1.26-32.57s-.03-.02-.04-.03c-.14-.17-.46-.41-.42-.54.1-.3.29-.38.5-.33l1.05-27.06c0-.54-.45-.97-1.01-.97h-24.78c-.37.11-.78.12-1.17.15-.1-.04-.18-.1-.25-.15h-7.39c-.37.48-.52,1.12-1.31,1.24-.54.08-1.08.36-1.52-.1-.48-.49-.14-.99-.05-1.11,0-.01.01-.03.02-.04h-29.12c-.12.23-.24.46-.37.69.64-.1,1.37.04,1.65.42.45.59-.03.95-.4,1.32-.84.84-1.01.84-1.71.11-.57-.57-.98-.97-.4-1.5.04-.04.1-.07.15-.1-.27-.11-.54-.24-.74-.43-.08-.08-.03-.3.01-.51h-7.03c-.56,0-1.12.43-1.23.97l-1.22,5.08c.47.08.9.2,1.09.71.45,1.2-.04,2.58-1.06,3.63-.41.52-.87.73-1.21.58l-.06.25c-.11.54.34.97.78.97h21.59l-5.43,24.84c.09.15.16.33.18.55.04.34.15.68.23,1.03-.3.1-.56.09-.79.02l-5.42,20.96c.15,0,.29,0,.43.03.07.02.08.23.12.36-.21,0-.42.02-.61-.03,0,0-.01-.01-.02-.02l-1.17,4.55c.07.1.13.2.2.3-.1.02-.2.04-.3.06l-2.51,9.73c-.11.54.34.97.78.97h7.07c.92-.2.97-1.09,1.43-1.66.09-.11.4-.03.62-.04-.03.28,0,.55-.1.77-.15.32-.34.61-.43.93h7.19c.56,0,1.12-.43,1.23-.97l.35-1.61c-.3.25-.67.1-1.03-.12ZM248.19,525.75c.07.02.08.23.12.36-.21,0-.42.02-.61-.03-.07-.02-.08-.23-.12-.36.21,0,.42-.02.61.03ZM245.19,536.02c-.08-.76.44-.47.69-.37.54.2.89.58.48,1.19-.13.19-.37.32-1.26,1.05.05-.87.14-1.38.09-1.87ZM235.75,563.32c.07.02.08.23.12.36-.21,0-.41,0-.61,0-.05-.15-.08-.27-.12-.4.21,0,.42-.02.61.03ZM230.48,570.72c.18.07.25.41.44.76-.45-.09-.84-.1-1.16-.26-.18-.09-.25-.42-.37-.64.37.04.76.01,1.09.14ZM216.63,555.59c-.14.3-.54.48-.82.72-.16-.51-.31-1.02-.47-1.55.18-.1.41-.31.55-.27.5.17,1.05.43.75,1.09ZM218.46,575.15c-.18.32-.17.85-.78.8-.08-.13-.31-.37-.26-.48.15-.34.21-.85.73-.81.12,0,.36.4.31.49ZM219.89,570.72c-.15.37-.37.72-.56,1.07-.13.24-.23.49-.38.71-.25.37-.43,1.22-.96.75-.35-.31-.82-1.19-.31-1.82.38-.47,1.04-.69,1.47-1.13.27-.27.43-.65.82-.3.11.1,0,.49-.08.71ZM224.39,570.86c-.47.3-.78-.07-1.1-.26-.1-.06-.12-.51-.02-.59.41-.32.75.07,1.06.26.1.07.04.4.06.59ZM225.41,546.37c.3.19.7.54.22.75-.53.23-1.13.7-1.79.27-.02-.01.22-.43.28-.53.34-.7.75-.81,1.28-.48ZM223.9,537.28c.12,0,.36.4.31.49-.18.32-.17.85-.78.8-.08-.13-.31-.37-.26-.48.15-.34.21-.85.73-.81ZM222.23,522.45c.41-.32.75.07,1.06.26.1.07.04.4.06.59-.47.3-.79-.07-1.1-.26-.1-.06-.12-.51-.02-.59ZM223.09,547.35c.15-.11.49.03.74.06-.35,1.23-.68,2.47-1.08,3.69-.03.09-.48.04-.74.05-.84-.42-.79-1.24-.88-1.99,1.23.02,1.24-1.27,1.96-1.8ZM221.31,546.62c-1.31.36-2.04,1.53-3.13,2.18-.25.15-.74-.11-1.11-.18-.59-.25-.83-.7-.94-1.27-.05-.27-.3-.61-.21-.77.5-.84,4.59-1.26,5.24-.56.13.14.16.61.15.61ZM219.95,539.82c.24.24.17.49-.09.5-.22.02-.45-.06-.68-.09.06-.11.12-.22.17-.33.2-.04.51-.17.59-.09ZM219.18,525.2c0-.21-.02-.42.03-.61.02-.07.23-.08.36-.12,0,.21,0,.41,0,.61-.15.05-.27.08-.4.12ZM220.09,520.22c.1.08.01.48-.06.71-.13.38-.4.65-.79.35-.1-.08.03-.47.05-.71.16-.37.41-.65.8-.35ZM219.16,517.7c.18.07.25.41.44.76-.45-.09-.84-.1-1.16-.26-.18-.09-.25-.42-.37-.64.37.04.76.01,1.09.14ZM217.48,539.97c.37-.55.94-.21,1.34.1.2.15.31.09.35.03.04-.11.04-.05,0,0-.01.03-.02.07-.04.13-.14.59-.43,1.24-1.24,1.33-.34.04-.68.15-1.03.23-.27-.81.27-1.32.61-1.82ZM213.58,517.23c.61-.46,1.43-.92,2.23-.38.86.57.71,2.26-.27,3.68q-.38.55-.81.18c-1.07-.89-1.82-2.97-1.15-3.48ZM214.67,564.64c-.21,0-.41,0-.61,0-.05-.15-.08-.27-.12-.4.21,0,.42-.02.61.03.07.02.08.23.12.36ZM213.6,575.84c.18.16.3.41.39.64.14.37.24.77.36,1.15-.37,0-.74-.01-.91-.01-.44-.23-.69-.33-.91-.49-.61-.44-.35-.96,0-1.34.28-.3.74-.23,1.06.05ZM212.88,553.84c-.29.72-.79.48-1.27.25-.13-.23-.25-.45-.37-.66.59-.06,1.1-.65,1.73-.29.08.05,0,.48-.09.7ZM209.9,520.55c.17-.67,1.59-1.2,2.35-.92.57.21.62.5.26,1.3-.36.79-.71,1.51-1.76.74-.41-.3-1.03-.43-.85-1.12ZM207.94,516.58c.07.02.08.23.12.36-.21,0-.42.02-.61-.03-.07-.02-.08-.23-.12-.36.21,0,.42-.02.61.03ZM207.76,522.83c.12-.08.42-.29.72-.5.1.58.37,1.22.23,1.73-.07.25-.91.37-1.41.38-.21,0-.11-.64.46-1.61ZM200.55,520.47c.22-.35.27-1.2.97-.69.38.28-.12.71-.26,1.08-.29.29-.28,1.18-.99.66-.38-.28.07-.75.27-1.06ZM192.86,519.34c.31-.76.83-.13,1.22.05.34.16.98.29.8.74-.31.77-.81.07-1.21-.03-.31-.23-.99-.31-.8-.76ZM188.99,520.96c.55-.31.99-.11,1.34.28.24.27.15.55-.12.52-.36-.04-.69-.21-1.05-.29-.4-.09-.45-.25-.17-.51ZM155.92,517.04c.19-.14.54-.36.65-.28.41.27.23.6-.08.87-.22.1-.55.35-.66.27-.41-.27-.24-.62.08-.86ZM152.64,516.87c.16-.19.71-.77.72.03.01.91,1.86,1.09.85,2.2-.39.43-1.15.52-1.7.75-.55-.36-.46-2.26.13-2.98ZM152.91,526.88c-.07.18-.41.25-.76.44.09-.45.1-.84.26-1.16.09-.18.42-.25.64-.37-.04.37-.01.76-.14,1.09ZM152.72,523.41c-.56.26-1.21-.04-1.16-.64.05-.59.42-1.28.88-1.66.46-.38,1.09-.01,1.18.6.15,1.04,1.1,1.06,1.69,1.54.11.09.03.4.04.62-.28-.03-.55,0-.77-.1-.59-.28-1.1-.71-1.86-.36ZM155.82,526.74c-.32.21-.71.26-1.17-.23-.01-.02-.29-.35-.25-.4.45-.51.84-.04,1.27.1.38.13.48.3.15.52ZM156.68,526.5c-.22.02-.45-.06-.68-.09.06-.11.12-.22.17-.33.2-.04.51-.17.59-.09.24.24.17.49-.09.5ZM157.99,520.89c-.16-.19-.48-.44-.44-.56.15-.47.53-.4.85-.15.19.15.49.43.45.55-.15.47-.52.38-.86.16ZM157.54,584.58c0-.21-.02-.42.03-.61.02-.07.23-.08.36-.12,0,.21,0,.41,0,.61-.15.05-.27.08-.4.12ZM172.59,554.79c-.15-.13-.25-.32-.37-.49.12-.04.25-.08.4-.12.11.17.22.34.33.51-.12.04-.31.15-.36.1ZM174.54,572.92c-.13.38-.4.65-.79.35-.1-.08.03-.47.05-.71.16-.37.41-.65.8-.35.1.08.01.48-.06.71ZM174.88,564.63c-.15-.1-.14-.42-.21-.64,1.06-.1,1.97-1.07,3.13-.58.2.08.31.4.45.61-.36.46-2.88.95-3.37.62ZM175.06,559.57c.12-.04.25-.08.4-.12.11.17.22.34.33.51-.12.04-.31.15-.36.1-.15-.13-.25-.32-.37-.49ZM180.62,536.68c-.16-.19-.48-.44-.44-.56.15-.47.53-.4.85-.15.19.15.49.43.45.55-.15.47-.52.38-.86.16ZM185.89,530.3c-.13.18-.43.25-.65.37-.07-.75-.82-1.44-.2-2.23.14-.18.43-.25.65-.36.1.74.79,1.44.21,2.22ZM182.39,521.05c.08-.37.45-.98.76-.76.7.51,1.54-.3,2.06.33.29.35.35,1.28.9.38.73-1.19,1.35-.41,1.98-.07.22.12.99.02.55.72-.15.23-.2.6-.4.7-1.82.89-3.49-.33-4.75-.24-.93-.31-1.19-.64-1.1-1.06ZM182.61,532.07c.32,1.16-.75.81-1.17.93-.41.12-.96-.2-1.15-.25-.88-.54-.91-1.38-.28-1.69.47-.23,1.02-.48,1.52-.45.8.05.91.82,1.09,1.46ZM181.26,520.22c.11.17.22.34.33.51-.12.04-.31.15-.36.1-.15-.13-.25-.32-.37-.49.12-.04.25-.08.4-.12ZM179.91,528.01c.15.13.25.32.37.49-.12.04-.25.08-.4.12-.11-.17-.22-.34-.33-.51.12-.04.31-.15.36-.1ZM177.63,522.88c.16-.37.41-.65.8-.35.1.08.01.48-.06.71-.13.38-.4.65-.79.35-.1-.08.03-.47.05-.71ZM178.09,556.03c.35.24.45.57.2,1.02-.37.68-.81.52-1.3.27-.32-.31-.45-.6-.21-1.05.37-.67.83-.56,1.3-.24ZM177.31,535.54c-.02.07-.23.08-.36.12,0-.21-.02-.42.03-.61.02-.07.23-.08.36-.12,0,.21.02.42-.03.61ZM177.3,524.87c-.11.52-.49.43-.82.19-.55-.4-1,.11-1.51.13-.02-.24-.11-.51-.04-.74.07-.22.26-.48.46-.58.6-.31.97.27,1.44.46.21.09.5.39.47.53ZM176.44,530.08c-.15.47-.52.38-.86.16-.16-.19-.48-.44-.44-.56.15-.47.53-.4.85-.15.19.15.49.43.45.55ZM174.16,517.05c.16-.18.47-.4.65-.36.38.1.74.33,1.09.55.61.39,1.78.52,1,1.67-.61.89-1.16-.1-1.61-.12-.49-.26-.92-.38-1.19-.66-.3-.31-.22-.76.07-1.08ZM174.76,526.51c-.21,0-.42.02-.61-.03-.07-.02-.08-.23-.12-.36.21,0,.41,0,.61,0,.05.15.08.27.12.4ZM173.76,537.29c.06-.1.51-.12.59-.02.32.41-.07.75-.26,1.06-.06.1-.4.04-.59.06-.3-.47.07-.78.26-1.1ZM171.85,519.02c.07.02.08.23.12.36-.21,0-.41,0-.61,0-.05-.15-.08-.27-.12-.4.21,0,.42-.02.61.03ZM165.14,516.54c.28.03.58-.02.75.1.67.46.81,1.16.66,1.92,0,.02-.51.03-.69-.09-.66-.47-.78-1.17-.73-1.93ZM161.89,525.97c-.31.32-.6.45-1.05.21-.67-.37-.56-.83-.24-1.3.01-.02.03-.03.05-.05-.06,0-.11.02-.17.03,0-.54-.14-1.12.03-1.58.15-.42.56-.18.86.08.53.47.32.86-.03,1.2.09.02.18.05.29.11.68.37.52.81.27,1.3ZM164.63,526.08c-.21.53-.56.92-1.24.5-.47-.14-.54-.54-.38-.93.21-.53.54-.88,1.22-.53.46.24.56.57.4.96ZM164.78,523.42c-.11-.17-.22-.34-.33-.51.12-.04.31-.15.36-.1.15.13.25.32.37.49-.12.04-.25.08-.4.12ZM165.66,521.86c-.49-.32-.61-1.21-.72-1.45.31-.96.7-1.03,1.09-.87.52.21.94.57.51,1.2-.29.42-.49,1.38-.88,1.13ZM168.12,526.17c-.45-.85-1.12-2.08-1.73-3.34-.06-.12.23-.55.43-.62,1.26-.43,5.06,1.38,5.59,2.63.21.49-.5,2.14-.89,2.01-1.01-.35-2.12.37-3.39-.68ZM167.73,543.62c.13-.15.32-.25.49-.37.04.12.08.25.12.4-.17.11-.34.22-.51.33-.04-.12-.15-.31-.1-.36ZM167.91,546.55c.16-.09.38-.21.6-.33-.04.37-.01.76-.14,1.09-.07.18-.41.25-.64.37-.17-.39-.15-.76.18-1.14ZM167.58,571.29c.07.02.08.23.12.36-.21,0-.41,0-.61.01-.05-.15-.08-.27-.12-.4.21,0,.42-.02.61.03ZM161.63,590.09c-.4.11-1.04.43-1.65.38-.2-.02-.61-1.29-.44-1.45.57-.51,1.36-.78,2.07-1.14.1.64.66,1.24.01,2.21ZM162.57,565.41c.24-.34.57-.45,1.02-.19.94.54.3,1.09.02,1.83-.18.13-.48.35-.78.57-.18-.73-.81-1.42-.26-2.21ZM163.36,582.01c-.98-.5-1.06-1.38-.89-2.32.21-.18.39-.43.6-.46.22-.04.54.06.71.22.78.73-.41,1.75.33,2.51-.25.02-.55.15-.74.05ZM164.06,573.77c-.07-.02-.08-.23-.12-.36.21,0,.42-.02.61.03.07.02.08.23.12.36-.21,0-.42.02-.61-.03ZM166.17,570.82c-.35.45-.94.01-1.46-.32-.14-.22-1.11-.26-.33-.87.33-.26,1.13-.42,1.33-.23.34.32.64,1.18.45,1.42ZM168.44,580c-.42,0-.86.73-1.27.04.03-.52-.64-1.09-.14-1.38.64-.38,1.21.33,1.73.65.33.2.19.7-.32.69ZM170.5,529.21c.23-.13.44-.25.66-.37.28.88.56,1.75.8,2.63.02.06-.32.25-.51.31-.09.03-.25-.09-.34-.17-.71-.67-1.04-1.44-.61-2.4ZM171.23,545.56c.28-.33.83-.56,1-.15.65,1.53,2.22,1.81,3.3,2.73.9.77,1.16,2.06,1.01,3.29-.06.51-.52.53-.87.45-.71-.21-.59-.97-.94-1.27-1.37-1.17-1.19-3.73-3.6-3.99-.26-.03-.18-.74.09-1.07Z"/><path class="cls-1" d="M193.99,620.65l-4.43,1.62c-.69-2.23-2.96-7.87-3.95-9.72l4.4-1.51c1.03,2.16,3.2,7.28,3.99,9.62ZM214.36,614.3c-.96,3.75-2.92,9.21-5.77,12.96-3.61,4.74-8.59,8.21-13.5,10.07l-3.85-3.85c4.71-1.34,10.07-4.43,13.57-8.87,2.58-3.26,4.71-9.17,5.29-14.43l5.15,1.48c-.38.86-.69,1.89-.89,2.65ZM203.16,618.11l-4.33,1.51c-.65-2.2-2.54-7.18-3.57-9.31l4.3-1.41c.86,1.68,2.96,6.98,3.61,9.21Z"/><path class="cls-1" d="M232.41,616.15c3.54-2.2,7.46-5.63,9.69-8.35l3.71,3.54c-2.61,2.58-5.91,5.26-9.24,7.46v13.88c0,1.51.07,3.64.31,4.5h-5.43c.14-.82.24-2.99.24-4.5v-11c-3.54,1.86-7.9,3.71-12.13,4.95l-2.17-4.33c6.15-1.58,11.2-3.81,15.02-6.15Z"/><path class="cls-1" d="M261.76,627.94c5.88-3.47,10.34-8.73,12.51-13.37l2.68,4.84c-2.61,4.64-7.18,9.38-12.71,12.71-3.47,2.1-7.9,4.02-12.75,4.84l-2.89-4.54c5.36-.76,9.83-2.51,13.16-4.5ZM261.76,616.84l-3.51,3.57c-1.79-1.92-6.08-5.67-8.59-7.42l3.23-3.44c2.41,1.62,6.87,5.19,8.87,7.29Z"/><path class="cls-1" d="M304.54,607.15c2.27,0,4.12,1.86,4.12,4.12s-1.86,4.12-4.12,4.12c-.83,0-1.58-.24-2.2-.65l1.41,3.33c-1.34.55-2.89,1.2-4.02,1.62-3.47,1.37-9,3.09-13.47,4.19v6.36c0,1.48.69,1.86,2.23,2.17,1.03.14,2.44.21,3.99.21,3.57,0,9.14-.45,11.96-1.2v5.02c-3.23.48-8.45.72-12.23.72-2.23,0-4.3-.14-5.77-.38-2.99-.55-4.71-2.2-4.71-5.15v-18.73c0-.76-.1-2.54-.27-3.57h5.08c-.17,1.03-.27,2.61-.27,3.57v6.49c4.05-1,8.83-2.51,11.89-3.81,1.1-.41,2.13-.89,3.3-1.58-.62-.72-1-1.68-1-2.71,0-2.27,1.82-4.12,4.09-4.12ZM304.54,613.27c1.1,0,1.99-.89,1.99-1.99s-.89-1.99-1.99-1.99-1.96.89-1.96,1.99.89,1.99,1.96,1.99Z"/><path class="cls-1" d="M316.57,619.97h18.45c1.62,0,3.13-.14,4.02-.21v5.4c-.82-.04-2.58-.17-4.02-.17h-18.45c-1.96,0-4.26.07-5.53.17v-5.4c1.24.1,3.75.21,5.53.21Z"/><path class="cls-1" d="M357.4,612.37c-.03.07-.07.1-.1.17h6.91c1.07,0,2.2-.17,2.99-.41l3.5,2.16c-.38.65-.86,1.62-1.13,2.47-.93,3.06-2.89,7.63-5.98,11.48-3.26,3.99-7.42,7.15-13.88,9.69l-4.05-3.64c7.04-2.1,10.86-5.09,13.85-8.49,2.34-2.68,4.33-6.8,4.88-9.38h-9.66c-2.3,2.99-5.29,6.01-8.66,8.32l-3.85-2.85c6.01-3.68,9-8.11,10.72-11.07.52-.86,1.24-2.44,1.55-3.61l5.02,1.65c-.79,1.2-1.68,2.75-2.1,3.5Z"/><path class="cls-1" d="M395.69,614.5c-1.17,2.68-3.09,6.36-5.4,9.45,3.4,2.96,7.56,7.35,9.59,9.83l-3.92,3.4c-2.23-3.09-5.43-6.6-8.66-9.72-3.64,3.85-8.21,7.42-12.92,9.66l-3.54-3.71c5.53-2.06,10.86-6.25,14.09-9.86,2.27-2.58,4.36-5.98,5.12-8.42h-11.65c-1.44,0-3.33.21-4.05.24v-4.88c.93.14,3.02.24,4.05.24h12.13c1.48,0,2.85-.21,3.54-.45l2.82,2.1c-.27.38-.89,1.44-1.2,2.13Z"/><path class="cls-1" d="M418.2,610.21h8.42c5.22,0,9.21,1.55,9.21,6.29,0,2.34-1.31,4.74-3.47,5.5v.17c2.75.65,4.78,2.58,4.78,6.01,0,5.12-4.26,7.49-9.86,7.49h-9.07v-25.46ZM426.24,620.59c3.23,0,4.64-1.31,4.64-3.33,0-2.23-1.51-3.13-4.57-3.13h-3.02v6.46h2.96ZM426.82,631.75c3.47,0,5.36-1.24,5.36-3.88,0-2.47-1.86-3.54-5.36-3.54h-3.54v7.42h3.54Z"/><path class="cls-1" d="M440.74,610.21h5.09v25.46h-5.09v-25.46Z"/><path class="cls-1" d="M451.22,610.21h5.09v11.06h.1l8.42-11.06h5.6l-7.77,10.03,9.14,15.43h-5.57l-6.6-11.44-3.33,4.29v7.15h-5.09v-25.46Z"/><path class="cls-1" d="M473.94,610.21h15.6v4.26h-10.51v5.88h8.93v4.26h-8.93v6.8h10.89v4.26h-15.98v-25.46Z"/><path class="cls-1" d="M501.16,610.21h8.35c5.64,0,9.97,1.99,9.97,8.01s-4.36,8.42-9.83,8.42h-3.4v9.04h-5.09v-25.46ZM509.3,622.61c3.5,0,5.19-1.48,5.19-4.4s-1.86-3.95-5.36-3.95h-2.89v8.35h3.06Z"/><path class="cls-1" d="M526.17,610.21h5.98l8.18,25.46h-5.33l-1.79-6.53h-8.25l-1.79,6.53h-5.16l8.14-25.46ZM526.07,625.19h6.05l-.76-2.78c-.79-2.65-1.48-5.57-2.2-8.32h-.17c-.65,2.78-1.41,5.67-2.17,8.32l-.76,2.78Z"/><path class="cls-1" d="M542.46,610.21h8.87c5.33,0,9.55,1.89,9.55,7.73,0,3.81-1.92,6.19-4.85,7.32l5.95,10.41h-5.67l-5.22-9.62h-3.54v9.62h-5.09v-25.46ZM550.85,622.03c3.26,0,5.08-1.38,5.08-4.09s-1.82-3.68-5.08-3.68h-3.3v7.77h3.3Z"/><path class="cls-1" d="M565.04,610.21h5.09v11.06h.1l8.42-11.06h5.6l-7.77,10.03,9.14,15.43h-5.57l-6.6-11.44-3.33,4.29v7.15h-5.09v-25.46Z"/><path class="cls-1" d="M594.7,610.21h5.19l7.39,13.57,2.54,5.5h.17c-.24-2.65-.65-6.01-.65-8.9v-10.17h4.81v25.46h-5.15l-7.35-13.61-2.58-5.46h-.17c.24,2.75.62,5.94.62,8.87v10.21h-4.81v-25.46Z"/><path class="cls-1" d="M619.58,610.21h5.09v25.46h-5.09v-25.46Z"/><path class="cls-1" d="M628.38,632.44l2.92-3.5c1.82,1.68,4.23,2.82,6.46,2.82,2.65,0,4.05-1.13,4.05-2.92,0-1.89-1.55-2.47-3.81-3.44l-3.4-1.44c-2.58-1.07-5.15-3.13-5.15-6.84,0-4.16,3.64-7.35,8.8-7.35,2.96,0,5.91,1.17,7.97,3.26l-2.58,3.2c-1.62-1.34-3.3-2.1-5.39-2.1-2.23,0-3.64,1-3.64,2.68,0,1.82,1.79,2.47,3.95,3.33l3.33,1.41c3.09,1.27,5.12,3.23,5.12,6.91,0,4.16-3.47,7.7-9.35,7.7-3.4,0-6.8-1.34-9.28-3.71Z"/><path class="cls-1" d="M650.65,610.21h15.6v4.26h-10.51v5.88h8.93v4.26h-8.93v6.8h10.89v4.26h-15.98v-25.46Z"/><path class="cls-1" d="M670.92,610.21h5.09v11.06h.1l8.42-11.06h5.6l-7.77,10.03,9.14,15.43h-5.57l-6.6-11.44-3.33,4.29v7.15h-5.09v-25.46Z"/><path class="cls-1" d="M691.37,622.85c0-8.28,4.64-13.09,11.37-13.09s11.38,4.84,11.38,13.09-4.64,13.3-11.38,13.3-11.37-5.05-11.37-13.3ZM708.93,622.85c0-5.46-2.4-8.73-6.19-8.73s-6.18,3.26-6.18,8.73,2.41,8.9,6.18,8.9,6.19-3.47,6.19-8.9Z"/></svg>